<svg version="1.2" xmlns="http://www.w3.org/2000/svg" viewBox="0 0 750 500" width="750" height="500"><style>.a{fill:#222}.b{fill:#98d3e5}.c{fill:#579baa}.d{fill:#fff}.e{fill:#19283b}.f{fill:#294459}.g{fill:#ffd152}.h{fill:#ff8b0d}.i{fill:#f3f7ff}.j{fill:#ad1e58}.k{fill:#e71c2e}.l{fill:#d2e6ff}.m{fill:#a6de70}.n{fill:none;stroke:#e71c2e;stroke-miterlimit:10}.o{opacity:.25;fill:#ffd152}.p{fill:none;stroke:#ffb692;stroke-miterlimit:10;stroke-width:12}.q{fill:#ecb220}.r{fill:#44596b}.s{fill:#ffb692}.t{fill:#d88d87}.u{fill:none;stroke:#284159;stroke-miterlimit:10;stroke-width:16}.v{fill:#dfe5f5}.w{fill:#afb6c6}.x{fill:#c17f1f}.y{fill:#c0f3ff}.z{fill:#fbf9fa}.A{fill:#e8a060}.B{fill:#ad7b55}.C{fill:#936b50}.D{fill:#edc09f}.E{fill:#626d7f}.F{fill:#284159}.G{fill:#252538}.H{fill:#f79c97}.I{fill:#ff9292}.J{fill:#ffabab}</style><path fill-rule="evenodd" class="a" d="m0 0h750v500h-750z"/><path class="b" d="m639.4 163.7c-25.2-77.6-109.3-120.3-186.8-94.9-24.4 8-45.3 21.8-61.7 39.2-28.8 30.8-71.6 44.8-113 37.2-23.5-4.4-48.5-3-72.8 5-77.6 25.4-119.9 109.7-94.2 187.2 25.7 77.2 109.1 119.1 186.5 93.7 23.9-7.8 44.4-21.2 60.6-38.2 29.8-31.2 72.9-45.3 115.4-37.9 23.1 4.1 47.6 2.6 71.5-5.2 77.4-25.5 119.6-108.7 94.5-186.1z"/><path class="c" d="m676 445.2h-602c-2.4 0-4.3-2-4.3-4.4 0-2.4 1.9-4.3 4.3-4.3h602c2.4 0 4.3 1.9 4.3 4.3 0 2.4-1.9 4.4-4.3 4.4z"/><path class="d" d="m647.3 294.3h-69-9.6-69c-1.9 0-3.4 1.6-3.4 3.5 0 1.9 1.5 3.4 3.4 3.4h15c1.9 0 3.5 1.6 3.5 3.5 0 1.9-1.6 3.4-3.5 3.4h-21c-1.9 0-3.5 1.6-3.5 3.5 0 1.9 1.6 3.5 3.5 3.5h52.2c1.9 0 3.4 1.5 3.4 3.4 0 1.9-1.5 3.5-3.4 3.5h-15.6c-1.9 0-3.5 1.5-3.5 3.4 0 1.9 1.6 3.5 3.5 3.5h78.6c1.9 0 3.4-1.6 3.4-3.5 0-1.9-1.5-3.4-3.4-3.4h-26.1c-1.9 0-3.4-1.6-3.4-3.5 0-1.9 1.5-3.4 3.4-3.4h53.9c1.9 0 3.5-1.6 3.5-3.5 0-1.9-1.6-3.5-3.5-3.5h-20.9c-1.9 0-3.5-1.5-3.5-3.4 0-1.9 1.6-3.5 3.5-3.5h31.5c1.9 0 3.4-1.5 3.4-3.4 0-1.9-1.5-3.5-3.4-3.5z"/><path class="d" d="m62.2 103.7h31.3c2.1 0 3.8 1.6 3.8 3.7 0 2-1.7 3.7-3.8 3.7h-12.6c-2.1 0-3.8 1.7-3.8 3.7 0 2.1 1.7 3.8 3.8 3.8h84.8c2 0 3.7-1.7 3.7-3.8 0-2-1.7-3.7-3.7-3.7h-32.3c-2 0-3.7-1.7-3.7-3.7 0-2.1 1.7-3.7 3.7-3.7h13.6 69.6c2.1 0 3.7-1.7 3.7-3.8 0-2-1.6-3.7-3.7-3.7h-56.3c-2.1 0-3.7-1.7-3.7-3.7 0-2.1 1.6-3.8 3.7-3.8h16.8c2.1 0 3.7-1.6 3.7-3.7 0-2-1.6-3.7-3.7-3.7h-84.8c-2.1 0-3.7 1.7-3.7 3.7 0 2.1 1.6 3.7 3.7 3.7h28.1c2.1 0 3.7 1.7 3.7 3.8 0 2-1.6 3.7-3.7 3.7h-58.2c-2 0-3.7 1.7-3.7 3.7 0 2.1 1.7 3.8 3.7 3.8z"/><path class="d" d="m218.7 260.2h74.5 10.3 74.4c2.1 0 3.8-1.7 3.8-3.7 0-2.1-1.7-3.8-3.8-3.8h-16.1c-2.1 0-3.8-1.6-3.8-3.7 0-2.1 1.7-3.7 3.8-3.7h22.7c2 0 3.7-1.7 3.7-3.7 0-2.1-1.7-3.8-3.7-3.8h-56.4c-2 0-3.7-1.6-3.7-3.7 0-2.1 1.7-3.7 3.7-3.7h16.9c2 0 3.7-1.7 3.7-3.7 0-2.1-1.7-3.8-3.7-3.8h-84.8c-2.1 0-3.8 1.7-3.8 3.8 0 2 1.7 3.7 3.8 3.7h28.1c2 0 3.7 1.6 3.7 3.7 0 2.1-1.7 3.7-3.7 3.7h-58.2c-2.1 0-3.7 1.7-3.7 3.8 0 2 1.6 3.7 3.7 3.7h22.6c2.1 0 3.7 1.6 3.7 3.7 0 2.1-1.6 3.7-3.7 3.7h-34c-2 0-3.7 1.7-3.7 3.8 0 2 1.7 3.7 3.7 3.7z"/><path class="d" d="m687.8 162.3h-31.3c-2.1 0-3.8-1.7-3.8-3.7 0-2.1 1.7-3.8 3.8-3.8h12.6c2.1 0 3.8-1.6 3.8-3.7 0-2-1.7-3.7-3.8-3.7h-84.8c-2 0-3.7 1.7-3.7 3.7 0 2.1 1.7 3.7 3.7 3.7h32.3c2 0 3.7 1.7 3.7 3.8 0 2-1.7 3.7-3.7 3.7h-13.6-69.6c-2.1 0-3.7 1.7-3.7 3.7 0 2.1 1.6 3.7 3.7 3.7h56.3c2.1 0 3.7 1.7 3.7 3.8 0 2-1.6 3.7-3.7 3.7h-16.8c-2.1 0-3.7 1.7-3.7 3.7 0 2.1 1.6 3.7 3.7 3.7h84.8c2.1 0 3.7-1.6 3.7-3.7 0-2-1.6-3.7-3.7-3.7h-28.1c-2.1 0-3.8-1.7-3.8-3.7 0-2.1 1.7-3.8 3.8-3.8h58.2c2 0 3.7-1.6 3.7-3.7 0-2-1.7-3.7-3.7-3.7z"/><path class="e" d="m280 439.1h-135.3c-13.7 0-24.9-11.2-24.9-25v-294.9c0-13.8 11.2-25 24.9-25h135.3c13.8 0 25 11.2 25 25v294.9c0 13.8-11.2 25-25 25z"/><path class="f" d="m292.9 439.1h-135.3c-13.8 0-25-11.2-25-25v-294.9c0-13.8 11.2-25 25-25h135.3c13.8 0 24.9 11.2 24.9 25v294.9c0 13.8-11.1 25-24.9 25z"/><path class="g" d="m292.9 102.2h-21.8v6.1c0 4.1-3.3 7.5-7.4 7.5h-76.9c-4.1 0-7.5-3.4-7.5-7.5v-6.1h-21.7c-9.4 0-17 7.6-17 17v294.9c0 9.4 7.6 17 17 17h135.3c9.3 0 16.9-7.6 16.9-17v-294.9c0-9.4-7.6-17-16.9-17z"/><path class="h" d="m184.4 115.8h2.4c-4.1 0-7.5-3.4-7.5-7.5v-6.1h-2.3v6.1c0 4.1 3.3 7.5 7.4 7.5z"/><path class="h" d="m292.9 102.2h-2.4c9.4 0 17 7.6 17 17v294.9c0 9.4-7.6 17-17 17h2.4c9.3 0 16.9-7.6 16.9-17v-294.9c0-9.4-7.6-17-16.9-17z"/><path class="f" d="m126.2 172c-1.5 0-2.7 1.1-2.7 2.6v27.9c0 1.5 1.2 2.7 2.7 2.7 1.4 0 2.6-1.2 2.6-2.7v-27.9c0-1.5-1.2-2.6-2.6-2.6z"/><path class="f" d="m126.2 214.9c-1.5 0-2.7 1.2-2.7 2.7v27.9c0 1.4 1.2 2.6 2.7 2.6 1.4 0 2.6-1.2 2.6-2.6v-27.9c0-1.5-1.2-2.7-2.6-2.7z"/><path class="i" d="m225.2 136.9c-13.3 0-24 10.8-24 24 0 13.3 24 46.3 24 46.3 0 0 24.1-33 24.1-46.3 0-13.2-10.8-24-24.1-24zm0 37c-7.2 0-13-5.8-13-13 0-7.1 5.8-13 13-13 7.2 0 13 5.9 13 13 0 7.2-5.8 13-13 13z"/><path class="i" d="m163.3 240.7h123.8c3.2 0 5.8-2.6 5.8-5.8 0-3.2-2.6-5.8-5.8-5.8h-123.8c-3.2 0-5.7 2.6-5.7 5.8 0 3.2 2.5 5.8 5.7 5.8z"/><path fill-rule="evenodd" class="i" d="m157.6 257.2h135.3v122h-135.3z"/><path class="j" d="m244.2 413.4h-42.5c-5.4 0-9.8-4.4-9.8-9.8 0-5.4 4.4-9.8 9.8-9.8h42.5c5.4 0 9.8 4.4 9.8 9.8 0 5.4-4.4 9.8-9.8 9.8z"/><path class="k" d="m251.2 413.4h-42.5c-5.4 0-9.8-4.4-9.8-9.8 0-5.4 4.4-9.8 9.8-9.8h42.5c5.4 0 9.8 4.4 9.8 9.8 0 5.4-4.4 9.8-9.8 9.8z"/><path fill-rule="evenodd" class="l" d="m166.9 264.6h24.3v21.7h-24.3z"/><path fill-rule="evenodd" class="l" d="m198.5 264.6h24.4v21.7h-24.4z"/><path fill-rule="evenodd" class="l" d="m230.2 264.6h24.4v21.7h-24.4z"/><path fill-rule="evenodd" class="m" d="m261.9 264.6h24.3v21.7h-24.3z"/><path fill-rule="evenodd" class="l" d="m166.9 293.6h24.3v21.6h-24.3z"/><path fill-rule="evenodd" class="m" d="m198.5 293.6h24.4v21.6h-24.4z"/><path fill-rule="evenodd" class="m" d="m261.9 293.6h24.3v21.6h-24.3z"/><path fill-rule="evenodd" class="l" d="m166.9 322.5h24.3v21.6h-24.3z"/><path fill-rule="evenodd" class="l" d="m198.5 322.5h24.4v21.6h-24.4z"/><path fill-rule="evenodd" class="l" d="m230.2 293.6v12.5 9.1 28.9h24.4v-28.9-9.1-12.5z"/><path fill-rule="evenodd" class="l" d="m261.9 322.5h24.3v21.6h-24.3z"/><path fill-rule="evenodd" class="l" d="m191.2 351.4h-3.4-20.9v21.7h20.9 3.4 31.7v-21.7z"/><path fill-rule="evenodd" class="l" d="m230.2 351.4h24.4v21.7h-24.4z"/><path fill-rule="evenodd" class="l" d="m261.9 351.4h24.3v21.7h-24.3z"/><path fill-rule="evenodd" class="n" d="m194.9 264.7v25.7h31.3v56.6h31.8v26.1"/><path fill-rule="evenodd" class="k" d="m194.9 266.4c-1 0-1.8-0.8-1.8-1.7 0-1 0.8-1.8 1.8-1.8 0.9 0 1.7 0.8 1.7 1.8 0 0.9-0.8 1.7-1.7 1.7z"/><path fill-rule="evenodd" class="k" d="m258 374.8c-1 0-1.7-0.7-1.7-1.7 0-1 0.7-1.8 1.7-1.8 1 0 1.8 0.8 1.8 1.8 0 1-0.8 1.7-1.8 1.7z"/><path fill-rule="evenodd" class="o" d="m603 94.9c-3.9 21.9-24.8 36.4-46.6 32.5-21.9-4-36.4-24.8-32.5-46.7 3.9-21.8 24.7-36.4 46.6-32.4 21.9 3.9 36.4 24.7 32.5 46.6z"/><path fill-rule="evenodd" class="g" d="m590 92.6c-2.6 14.7-16.6 24.4-31.3 21.8-14.7-2.6-24.5-16.6-21.9-31.3 2.6-14.7 16.6-24.5 31.3-21.9 14.8 2.6 24.5 16.6 21.9 31.4z"/><path fill-rule="evenodd" class="p" d="m492.8 213c18.2 72.4 80.9 51.4 80.9 51.4"/><path class="q" d="m505.3 220.6l-7.4-19.7c-2.4-5.4-8.6-7.9-14.1-5.6-5.4 2.4-7.9 8.7-5.5 14.1l7.4 19.7z"/><path class="r" d="m557.5 270.2h31.7c1.9 0 3.4-1.5 3.4-3.4 0-1.9-1.5-3.4-3.4-3.4h-31.7z"/><path class="s" d="m562.3 262.3c0 0 3.4 3.8 4.2 9.3 0.3 1.5 1.6 2.7 3.1 2.9 3 0.2 7.7 0.2 12-1.2 1.4-0.5 2.2-2 1.9-3.4-0.7-3-2.1-7.9-4.3-9.5-3.3-2.2-13.9-4.5-16.9 1.9z"/><path class="t" d="m570.8 274.5q0.5 0.1 1.1 0.1c0.4-2.2 0.4-5.7-2-10.8l-0.9 0.4c2.4 5 2.3 8.4 1.8 10.3z"/><path class="t" d="m576.5 274.3c0.4-2.1 0.3-5.6-2-10.5l-0.9 0.4c2.3 5 2.3 8.3 1.8 10.3q0.6-0.1 1.1-0.2z"/><path class="t" d="m578.2 264.2c2 4.3 2.3 7.4 2 9.5q0.5-0.2 1.1-0.4c0.2-2.1-0.2-5.3-2.2-9.5z"/><path fill-rule="evenodd" class="u" d="m500.5 299.7c8.4 4.3 14.9 8.2 14.8 9.5-0.3 3.8-11.1 65.2-11.1 65.2"/><path fill-rule="evenodd" class="u" d="m464.9 282.6c0 0 20.8 9.3 35.6 17.1"/><path class="h" d="m516.8 361.1l-2.5 10c0 0 12.6 0.2 15.7 14.2h-37.2l6.1-27.4z"/><path class="e" d="m504.6 371.7c0.1 2.1-1.3 3.9-3 4-1.7 0-3.1-1.8-3.1-3.9 0-2.2 1.3-4 3-4 1.7-0.1 3.1 1.7 3.1 3.9z"/><path class="k" d="m547.2 397.5c0 0 17.8 6.6 28.6-5.6 10.7-12.2 21.7-23.5 56.1-22 0 0-6.7-21.8-34.3-21.8-27.7 0-44.1 20-50.4 49.4z"/><path fill-rule="evenodd" class="e" d="m389.9 439.1c-15.2 0-27.5-16.3-27.5-36.5 0-20.2 12.3-36.5 27.5-36.5 15.2 0 27.5 16.3 27.5 36.5 0 20.2-12.3 36.5-27.5 36.5z"/><path fill-rule="evenodd" class="e" d="m390.8 439.1h-20.1v-73h20.1z"/><path fill-rule="evenodd" class="r" d="m370.5 439.1c-15.2 0-27.5-16.3-27.5-36.5 0-20.2 12.3-36.5 27.5-36.5 15.3 0 27.6 16.3 27.6 36.5 0 20.2-12.3 36.5-27.6 36.5z"/><path fill-rule="evenodd" class="v" d="m370.5 426.1c-8 0-14.4-10.5-14.4-23.5 0-13 6.4-23.5 14.4-23.5 8 0 14.5 10.5 14.5 23.5 0 13-6.5 23.5-14.5 23.5z"/><path fill-rule="evenodd" class="v" d="m370.5 428.5c-8.8 0-15.9-11.6-15.9-25.9 0-14.4 7.1-26 15.9-26 8.9 0 16 11.6 16 26 0 14.3-7.1 25.9-16 25.9z"/><path class="w" d="m370.5 376.6c1.2 0 2.4 0.3 3.5 0.8-6.4 2.6-12.5 12.2-12.5 25.2 0 13 6.1 22.6 12.5 25.2-1.1 0.5-2.3 0.7-3.5 0.7-7.5 0-15.9-10.6-15.9-25.9 0-15.3 8.4-26 15.9-26z"/><path class="i" d="m368.3 416.9c4.4 0 9.4-6.2 9.4-15 0-8.8-5-14.9-9.4-14.9-4.5 0-9.4 6.1-9.4 14.9 0 8.8 4.9 15 9.4 15z"/><path class="k" d="m563.3 271.9h-18.3c-3.8 0-6.8 3-6.8 6.7v100c0 3.7-3 6.7-6.7 6.7h-53.5c-3.7 0-6.7-3-6.7-6.7v-60.9c0-3.7-3-6.7-6.8-6.7h-77.6q-0.7 0-1.4 0.1c-6.7 1.4-58.3 14.2-61.9 78.6-0.2 3.9 2.8 7.2 6.7 7.2h74.6 66.4 66.9 13.9c3.4 0 6.3-2.6 6.7-6.1 2.3-23.3 18.1-32.4 25.8-35.5 2.6-1 4.2-3.5 4.2-6.2v-29.1c0-2.7-1.6-5.3-4.2-6.3-11.1-4.1-13.9-24.9-14.6-35.5-0.2-3.6-3.2-6.3-6.7-6.3z"/><path class="j" d="m538.2 283.7v2h32.5q-0.2-2.1-0.4-3.9h-30.2z"/><path class="j" d="m542.4 271.9h-18.3c-3.7 0-6.8 3-6.8 6.7v100c0 3.7-3 6.7-6.7 6.7h-53.4c-3.8 0-6.8-3-6.8-6.7v-60.9c0-3.7-3-6.7-6.7-6.7h-77.7q-0.7 0-1.4 0.1c-6.7 1.4-58.3 14.2-61.9 78.6-0.2 3.9 2.9 7.2 6.8 7.2h74.5 66.4 66.9 13.9c3.4 0 6.4-2.6 6.7-6.1 2.3-23.3 18.1-32.4 25.8-35.5 2.6-1 4.2-3.5 4.2-6.2v-29.1c0-2.7-1.6-5.3-4.1-6.3-11.2-4.1-14-24.9-14.7-35.5-0.2-3.6-3.2-6.3-6.7-6.3z"/><path class="j" d="m550.4 283.8h-30.2c-5.7 0-10.3-4.6-10.3-10.3v-11.9c0-5.7 4.6-10.3 10.3-10.3h30.2c5.7 0 10.3 4.6 10.3 10.3v11.9c0 5.7-4.6 10.3-10.3 10.3z"/><path class="k" d="m568.5 283.8h-30.2c-5.7 0-10.3-4.6-10.3-10.3v-11.9c0-5.7 4.6-10.3 10.3-10.3h30.2c5.7 0 10.3 4.6 10.3 10.3v11.9c0 5.7-4.6 10.3-10.3 10.3z"/><path fill-rule="evenodd" class="e" d="m594.4 439.1c-15.2 0-27.5-16.3-27.5-36.5 0-20.2 12.3-36.5 27.5-36.5 15.2 0 27.5 16.3 27.5 36.5 0 20.2-12.3 36.5-27.5 36.5z"/><path fill-rule="evenodd" class="e" d="m595.3 439.1h-20.1v-73h20.1z"/><path fill-rule="evenodd" class="r" d="m575.1 439.1c-15.3 0-27.6-16.3-27.6-36.5 0-20.2 12.3-36.5 27.6-36.5 15.2 0 27.5 16.3 27.5 36.5 0 20.2-12.3 36.5-27.5 36.5z"/><path fill-rule="evenodd" class="v" d="m575.1 426.1c-8 0-14.5-10.5-14.5-23.5 0-13 6.5-23.5 14.5-23.5 8 0 14.4 10.5 14.4 23.5 0 13-6.4 23.5-14.4 23.5z"/><path fill-rule="evenodd" class="v" d="m575.1 428.5c-8.9 0-16-11.6-16-25.9 0-14.4 7.1-26 16-26 8.8 0 16 11.6 16 26 0 14.3-7.2 25.9-16 25.9z"/><path class="w" d="m575.1 376.6c1.1 0 2.3 0.3 3.4 0.8-6.4 2.6-12.5 12.2-12.5 25.2 0 13 6.1 22.6 12.5 25.2-1.1 0.5-2.3 0.7-3.4 0.7-7.6 0-16-10.6-16-25.9 0-15.3 8.4-26 16-26z"/><path class="i" d="m572.8 416.9c4.4 0 9.4-6.2 9.4-15 0-8.8-5-14.9-9.4-14.9-4.4 0-9.4 6.1-9.4 14.9 0 8.8 5 15 9.4 15z"/><path class="e" d="m566.1 281h-25.4c-1.9 0-3.3-1.4-3.3-3.3v-20.3c0-1.9 1.4-3.3 3.3-3.3h25.4c1.8 0 3.3 1.4 3.3 3.3v20.3c0 1.9-1.5 3.3-3.3 3.3z"/><path class="r" d="m573.5 281h-25.5c-1.8 0-3.3-1.4-3.3-3.3v-20.3c0-1.9 1.5-3.3 3.3-3.3h25.5c1.8 0 3.3 1.4 3.3 3.3v20.3c0 1.9-1.5 3.3-3.3 3.3z"/><path class="q" d="m547.5 276.9v-18.7c0-0.7 0.6-1.3 1.3-1.3h23.9c0.7 0 1.3 0.6 1.3 1.3v18.7c0 0.8-0.6 1.3-1.3 1.3h-23.9c-0.7 0-1.3-0.6-1.3-1.3z"/><path class="h" d="m572.7 256.9h-4.7c1 0 1.8 0.8 1.8 1.8v17.7c0 1-0.8 1.8-1.8 1.8h4.7c0.7 0 1.3-0.5 1.3-1.2v-18.8c0-0.8-0.6-1.3-1.3-1.3z"/><path class="k" d="m382.3 346.7h-13.2c-24.4 0-44.1 19.7-44.1 44v6.2h101.3v-6.2c0-24.3-19.7-44-44-44z"/><path class="j" d="m385.6 357.2c-11.9-8.9-28.4-8.9-40.3 0-10.3 7.7-17 20-17 33.8v5.9h74.3v-5.9c0-13.8-6.7-26.1-17-33.8z"/><path class="r" d="m468.6 316h-105.6c-4.7 0-8.4-3.8-8.4-8.4 0-4.7 3.7-8.4 8.4-8.4h105.6c4.6 0 8.4 3.7 8.4 8.4 0 4.6-3.8 8.4-8.4 8.4z"/><path class="e" d="m410.5 316h-79.7c-4.6 0-8.4-3.8-8.4-8.4 0-4.7 3.8-8.4 8.4-8.4h79.7c4.7 0 8.4 3.7 8.4 8.4 0 4.6-3.7 8.4-8.4 8.4z"/><path class="j" d="m568.6 405.1l-25.5-25.5c-1.8-1.8-1.8-4.7 0-6.5 1.8-1.8 4.7-1.8 6.5 0l25.5 25.5c1.7 1.8 1.7 4.7 0 6.5-1.8 1.8-4.8 1.8-6.5 0z"/><path class="j" d="m531.6 397.1c0 0 20.3 7 31.1-5.2 10.7-12.2 21.7-23.5 56-22 0 0-6.7-21.8-34.3-21.8-27.6 0-46.4 19.5-52.8 49z"/><path class="k" d="m544.8 397.3q-0.1 0-0.1 0c-4.5 0-7.6-4.5-6.3-8.7 7.7-24.9 23.2-38.5 44.5-38.5 19.6 0 27.6 12.1 30.3 17.7q-1.5 0-2.9 0c-30.5 0-40.8 12.1-49.9 22.8-3.8 4.4-9.1 6.7-15.6 6.7z"/><path class="e" d="m408.6 388.9h8.5c2.7 0 4.9-2.2 4.9-4.8 0-2.7-2.2-4.9-4.9-4.9h-8.7c-2.2 0-4 1.8-4 4v1.5c0 2.3 1.9 4.2 4.2 4.2z"/><path class="r" d="m410.9 388.9h8.6c2.6 0 4.8-2.2 4.8-4.8 0-2.7-2.2-4.9-4.8-4.9h-8.7c-2.2 0-4.1 1.9-4.1 4.2v1.3c0 2.3 1.9 4.2 4.2 4.2z"/><path class="q" d="m419.4 386.4c1.5 0 2.6-1.3 2.3-2.8-0.2-1.1-1.2-1.8-2.3-1.8h-8c-1.2 0-2.2 0.9-2.2 2.1v0.8c0 0.9 0.8 1.7 1.7 1.7z"/><path class="x" d="m420.2 384.1c0-1.3-1-2.3-2.3-2.3h1.5c1.1 0 2.1 0.7 2.3 1.8 0.3 1.5-0.8 2.8-2.3 2.8h-1.5c1.3 0 2.3-1.1 2.3-2.3z"/><path fill-rule="evenodd" class="y" d="m562.3 298.5c-2.7 0-4.9-2.2-4.9-4.9 0-2.8 2.2-5 4.9-5 2.8 0 5 2.2 5 5 0 2.7-2.2 4.9-5 4.9z"/><path fill-rule="evenodd" class="z" d="m564.5 298.5c-2.8 0-5-2.2-5-4.9 0-2.8 2.2-5 5-5 2.7 0 4.9 2.2 4.9 5 0 2.7-2.2 4.9-4.9 4.9z"/><path class="k" d="m576.8 348.7c0 0 25-3.3 37 21.1h18.1c0 0-4.9-15.2-19.7-20-14.8-4.8-35.4-1.1-35.4-1.1z"/><path fill-rule="evenodd" class="A" d="m335.6 230.1h97.6v68.6h-97.6z"/><path fill-rule="evenodd" class="B" d="m329.2 230.1h37.2v68.6h-37.2z"/><path fill-rule="evenodd" class="C" d="m346.2 230.1h0.9v68.6h-0.9z"/><path fill-rule="evenodd" class="D" d="m340.8 230.1h11.7v26.7h-11.7z"/><path fill-rule="evenodd" class="d" d="m403 234.3h25.5v11.2h-25.5z"/><path fill-rule="evenodd" class="E" d="m404.7 235.6h0.5v8.7h-0.5z"/><path fill-rule="evenodd" class="E" d="m408.9 235.6h0.6v8.7h-0.6z"/><path fill-rule="evenodd" class="E" d="m410.2 235.6h0.9v8.7h-0.9z"/><path fill-rule="evenodd" class="E" d="m405.7 235.6h0.2v8.7h-0.2z"/><path fill-rule="evenodd" class="E" d="m406.2 235.6h0.2v8.7h-0.2z"/><path fill-rule="evenodd" class="E" d="m406.7 235.6h0.3v8.7h-0.3z"/><path fill-rule="evenodd" class="E" d="m407.3 235.6h0.2v8.7h-0.2z"/><path fill-rule="evenodd" class="E" d="m407.8 235.6h0.2v8.7h-0.2z"/><path fill-rule="evenodd" class="E" d="m411.8 235.6h0.5v8.7h-0.5z"/><path fill-rule="evenodd" class="E" d="m412.8 235.6h0.2v8.7h-0.2z"/><path fill-rule="evenodd" class="E" d="m413.3 235.6h0.2v8.7h-0.2z"/><path fill-rule="evenodd" class="E" d="m413.8 235.6h0.3v8.7h-0.3z"/><path fill-rule="evenodd" class="E" d="m414.4 235.6h0.2v8.7h-0.2z"/><path fill-rule="evenodd" class="E" d="m414.9 235.6h0.2v8.7h-0.2z"/><path fill-rule="evenodd" class="E" d="m417.7 235.6h8.7v3h-8.7z"/><path fill-rule="evenodd" class="E" d="m417.7 241h8.7v0.7h-8.7z"/><path fill-rule="evenodd" class="E" d="m417.7 242.1h8.7v0.8h-8.7z"/><path fill-rule="evenodd" class="E" d="m417.7 243.3h8.7v0.7h-8.7z"/><path fill-rule="evenodd" class="r" d="m359.1 229.3h4.6v71.9h-4.6z"/><path fill-rule="evenodd" class="r" d="m331.3 229.3h4.6v71.9h-4.6z"/><path class="F" d="m470.2 299.7h-22.2c-9.1 0-16.6-7.4-16.6-16.6v-1.8c0-9.2 7.5-16.7 16.6-16.7h22.2c9.2 0 16.7 7.5 16.7 16.7v1.8c0 9.2-7.5 16.6-16.7 16.6z"/><path fill-rule="evenodd" class="j" d="m479.8 175.2c-16.1 6.3-34.2-1.7-40.6-17.8-6.3-16.1 1.6-34.3 17.8-40.6 16.1-6.3 34.3 1.6 40.6 17.8 6.3 16.1-1.6 34.2-17.8 40.6z"/><path class="h" d="m485.4 274c-4.3 2.1-12 5.1-22.1 5.2-13.8 0.1-23.9-5.5-28-8.1q2-34.5 4-69.1c0.5-8.2 7.5-14.5 15.7-14l16.1 0.9c10.6 0.6 18.6 9.7 18 20.3z"/><path class="s" d="m454.2 194.8c-0.9 4 3.8 8.6 10.6 10.3 6.8 1.6 13.2-0.4 14.1-4.5 1-4.1-3.8-8.7-10.6-10.3-6.8-1.6-13.1 0.4-14.1 4.5z"/><path class="s" d="m470.2 133.9l-0.9-0.1c-5.9-0.3-11.1 6.9-11.7 16.1l-2.6 45.7 22.3 1.3 2.6-45.7c0.6-9.2-3.8-17-9.7-17.3z"/><path class="t" d="m470.2 133.9l-0.9-0.1c-5.9-0.3-11.1 6.3-11.6 14.9l-1.8 31.2c-0.4 6.2 4.3 11.5 10.5 11.8 6.2 0.4 11.4-4.3 11.8-10.5l1.8-31.2c0.5-8.6-3.9-15.8-9.8-16.1z"/><path class="G" d="m479.6 171.9l-24-1.4c-5.7-0.3-10.1-5.2-9.7-10.9l0.8-14c0.7-12.3 11.3-21.7 23.6-21 12.3 0.7 21.7 11.3 21 23.6l-0.8 14c-0.3 5.7-5.2 10-10.9 9.7z"/><path class="s" d="m466.7 185.6c-11-0.6-19.4-10.1-18.8-21.1l1.1-19c0.6-10.6 9.7-18.7 20.3-18l1.6 0.1c10.6 0.6 18.7 9.6 18.1 20.2l-1.1 19c-0.7 11-10.1 19.4-21.2 18.8z"/><path class="t" d="m464.1 150.2l-4.6-0.3c-1.1-0.1-2 0.7-2 1.8-0.1 1 0.7 1.9 1.8 2l4.6 0.2c1 0.1 1.9-0.7 2-1.7 0-1.1-0.8-2-1.8-2z"/><path class="t" d="m484.7 151.3l-4.6-0.2c-1-0.1-1.9 0.7-2 1.8 0 1 0.8 1.9 1.8 2l4.6 0.2c1 0.1 1.9-0.7 2-1.7 0.1-1.1-0.7-2-1.8-2.1z"/><path class="G" d="m463.3 149.8c-1.3 0-2.4 1-2.5 2.2-0.1 1.3 0.9 2.4 2.2 2.5 1.3 0.1 2.4-0.9 2.5-2.2 0-1.3-1-2.4-2.2-2.5z"/><path class="G" d="m481 150.9c-1.3-0.1-2.4 0.9-2.5 2.2-0.1 1.3 0.9 2.4 2.2 2.4 1.3 0.1 2.4-0.9 2.5-2.2 0-1.2-0.9-2.4-2.2-2.4z"/><path class="G" d="m483.9 146.7l-3.9-1.5c-0.9-0.3-1.9 0.1-2.2 1-0.3 0.9 0.1 1.8 1 2.2l3.9 1.5c0.9 0.3 1.9-0.1 2.2-1 0.4-0.9-0.1-1.8-1-2.2z"/><path class="G" d="m462.5 144.2l-4.1 1.1c-0.9 0.2-1.4 1.1-1.2 2 0.2 0.9 1.1 1.5 2 1.2l4.2-1c0.9-0.2 1.4-1.2 1.2-2.1-0.2-0.9-1.2-1.4-2.1-1.2z"/><path class="t" d="m472.4 175.6c-0.2 1-2.4 1.4-4.9 0.8-2.5-0.6-4.3-1.9-4-2.9 0.2-1 2.4-1.4 4.9-0.8 2.4 0.6 4.3 1.9 4 2.9z"/><path class="t" d="m471.4 162.4c-1.8-0.1-3.2-1.7-3.1-3.5l0.3-5.4c0.1-1.8 1.7-3.3 3.5-3.1 1.9 0.1 3.3 1.6 3.1 3.5l-0.3 5.4c-0.1 1.8-1.6 3.2-3.5 3.1z"/><path class="H" d="m473.3 160.6c-0.5 0-0.9-0.4-0.8-0.9l0.3-6.3c0.1-0.4 0.5-0.8 1-0.8 0.4 0 0.8 0.5 0.8 0.9l-0.4 6.3c0 0.5-0.4 0.8-0.9 0.8z"/><path class="G" d="m474.4 165.4c-2.3-0.6-5.5-1.6-8.4-3.1-2-1-4 1.4-3.2 3.7 0.9 2.4 2.7 4.8 6.2 5.5 2.8 0.6 4.7 0 6-1 1.8-1.3 1.4-4.6-0.6-5.1z"/><path class="I" d="m469 171.5c-3.5-0.7-5.3-3.1-6.2-5.5q-0.1-0.5-0.1-1.1c1.3-0.4 2.9-0.4 5.1 0.3 3.4 1.1 4.8 3.7 5.4 6.2q0 0 0 0c-1.1 0.4-2.5 0.4-4.2 0.1z"/><path class="J" d="m471 168.8c-0.4 0.6-1.8 0.3-3-0.5-1.2-0.9-1.9-2-1.5-2.5 0.5-0.6 1.8-0.4 3 0.5 1.2 0.8 1.9 2 1.5 2.5z"/><path class="d" d="m474.4 165.4c-2.3-0.6-5.5-1.6-8.4-3.1-1.2-0.6-2.4 0-3 1.2 1.6 1.8 4.2 3.3 7.4 4.3 2 0.5 4 0.8 5.7 0.7 0.2-1.4-0.4-2.8-1.7-3.1z"/><path class="k" d="m498.7 138.7c-2.1-16.1-15.3-29.3-32.6-30.4-17.2-1.1-32.8 10.7-36.4 27.5-3.7 16.8 5.2 33 19.9 39.5 6.2-8 5-35.5 8.5-38.9 2.8-2.6 24.6 2 37.6 5 1.7 0.4 3.2-1 3-2.7z"/><path class="G" d="m478.6 137.7c1-8.4 1-18.9-1.9-27.1-2.7-1-5.7-1.8-8.8-2.1 4.1 5.6 5 17.1 3.8 28.1 2.2 0.3 4.5 0.7 6.9 1.1z"/><path class="d" d="m447.9 152c0.6 5.6-1.8 10.5-5.3 10.9-3.6 0.3-6.9-4-7.4-9.7-0.6-5.7 1.8-10.6 5.3-10.9 3.5-0.4 6.8 4 7.4 9.7z"/><path class="G" d="m443.8 152.4c0.3 2.9-0.9 5.5-2.8 5.7-1.8 0.2-3.5-2.1-3.8-5.1-0.3-3 0.9-5.5 2.8-5.7 1.8-0.2 3.5 2.1 3.8 5.1z"/><path fill-rule="evenodd" class="p" d="m440.5 208.4c-17.6 67.5 56.4 56 56.4 56"/><path class="q" d="m446.6 224.2l7.5-19.7c1.9-5.6-1.2-11.6-6.8-13.5-5.6-1.8-11.7 1.3-13.5 6.9l-7.5 19.6z"/><path fill-rule="evenodd" class="u" d="m440.5 285.7c0 0 46.7 22.8 46.4 26.6-0.3 3.8-11.1 65.2-11.1 65.2"/><path class="q" d="m488.9 361.1l-2.5 10c0 0 12.6 0.2 15.7 14.2h-37.2l6.1-27.4z"/><path class="e" d="m476.7 371.7c0 2.1-1.3 3.9-3 4-1.7 0-3.1-1.8-3.1-3.9-0.1-2.2 1.3-4 3-4 1.7-0.1 3.1 1.7 3.1 3.9z"/><path class="r" d="m521.6 270.2h-31.7c-1.9 0-3.4-1.5-3.4-3.4 0-1.9 1.5-3.4 3.4-3.4h31.7z"/><path class="s" d="m488.6 262.3c0 0 3.4 3.8 4.3 9.3 0.2 1.5 1.5 2.7 3.1 2.9 2.9 0.2 7.6 0.2 11.9-1.2 1.4-0.5 2.2-2 1.9-3.4-0.6-3-2-7.9-4.3-9.5-3.2-2.2-13.9-4.5-16.9 1.9z"/><path class="t" d="m497.2 274.5q0.5 0.1 1 0.1c0.5-2.2 0.5-5.7-1.9-10.8l-0.9 0.4c2.3 5 2.3 8.4 1.8 10.3z"/><path class="t" d="m502.9 274.3c0.4-2.1 0.3-5.6-2-10.5l-0.9 0.4c2.3 5 2.3 8.3 1.8 10.3q0.5-0.1 1.1-0.2z"/><path class="t" d="m504.6 264.2c2 4.3 2.2 7.4 2 9.5q0.5-0.2 1-0.4c0.2-2.1-0.1-5.3-2.1-9.5z"/></svg>