<svg version="1.2" xmlns="http://www.w3.org/2000/svg" viewBox="0 0 500 500" width="500" height="500"><defs><linearGradient id="P" gradientUnits="userSpaceOnUse"/><linearGradient id="g1" x2="1" href="#P" gradientTransform="matrix(.255,33.957,-132.055,.993,66.925,399.688)"><stop offset=".24" stop-color="#9c9c9c" stop-opacity="1"/><stop offset="1" stop-color="#fff" stop-opacity="0"/></linearGradient><radialGradient id="g2" cx="0" cy="0" r="1" href="#P" gradientTransform="matrix(54.029,0,0,54.029,311.2,407.3)"><stop offset=".41" stop-color="#9c9c9c" stop-opacity="1"/><stop offset="1" stop-color="#fff" stop-opacity="0"/></radialGradient><radialGradient id="g3" cx="0" cy="0" r="1" href="#P" gradientTransform="matrix(51.997,0,0,51.997,169.632,406.181)"><stop offset=".41" stop-color="#9c9c9c" stop-opacity="1"/><stop offset="1" stop-color="#fff" stop-opacity="0"/></radialGradient></defs><style>.a{fill:#222}.b{fill:#d6edf1}.c{fill:#f58249}.d{fill:#f5ad49}.e{opacity:.5;fill:#f5ad49}.f{fill:#a4d7e0}.g{fill:#1c484f}.h{opacity:.5;fill:#1f4f57}.i{fill:#e6e6e6}.j{fill:#80c8d4}.k{fill:none;stroke:#1c484f;stroke-miterlimit:10}.l{opacity:.5;fill:url(#g1)}.m{fill:#c7762f}.n{fill:#e38c3b}.o{opacity:.5;fill:#e38c3b}.p{opacity:.5;fill:#c7762f}.q{fill:#1c2540}.r{fill:#ff4846}.s{opacity:.5;fill:#871a1a}.t{fill:#80d4a9}.u{opacity:.19;fill:#80d4a9}.v{fill:#fff}.w{fill:none;stroke:#fff;stroke-miterlimit:10}.x{fill:none;stroke:#fff;stroke-miterlimit:10;stroke-dasharray:9.0335,9.0335}.y{opacity:.5;fill:#80c8d4}.z{fill:#577bb5}.A{fill:#4e6fa3}.B{opacity:.5;fill:url(#g2)}.C{fill:#c7683c}.D{opacity:.5;fill:#c7683c}.E{fill:#a9c0c4}.F{fill:#d4774c}.G{fill:#bf6237}.H{fill:#d99434}.I{opacity:.5;fill:#d99434}.J{fill:#c2612d}.K{fill:#67b38b}.L{fill:#5e2b13}.M{fill:#d46c46}.N{fill:#1a223b}.O{opacity:.5;fill:url(#g3)}.P{opacity:.5;fill:#1c2540}.Q{fill:#28365d}.R{fill:#ebaf7f}.S{fill:#e48855}.T{fill:#ff814f}.U{opacity:.5;fill:#ff7a46}.V{fill:#911b1a}.W{fill:#e9a770}.X{fill:#c42c2b}</style><path fill-rule="evenodd" class="a" d="m0 0h500v500h-500z"/><path class="b" d="m150.8 400.9h294c27.1-46.6 38.5-102.1 31.8-155.6-2.2-18-6.5-36-16.1-51.3-9.7-15.3-25.2-27.7-43.1-30.1-23-3.2-44.7 9.7-66.8 17.1-32.9 11.1-69.2 9.9-102.6 0.3-36.5-10.5-71.3-30.9-109.3-29.6-34.5 1.1-66.9 21.1-87.3 49-20.5 27.8-29.7 62.8-30.6 97.4-0.9 34.5 6.1 68.8 15.7 102z"/><path class="b" d="m84.9 160.5c10.6-6.9 22.6-12 35.2-13.4 4.2-0.5 9.1-0.9 11.3-4.6 1.8-3 0.7-7.1-1.7-9.6-2.5-2.6-5.9-3.8-9.3-4.6-17.4-4.3-36.1 0.1-51.4 9.4-5.6 3.5-10.9 7.7-15 12.9-4 5.3-6.7 11.7-6.8 18.4-0.1 3.4 0.6 6.9 2.3 9.9 1.5 2.5 4.2 5.8 7.3 4.6 3.2-1.2 6.3-5.6 8.8-7.9 6-5.5 12.4-10.7 19.3-15.1z"/><path fill-rule="evenodd" class="c" d="m379 426.4h-1.7l28-25.6h1.8z"/><path fill-rule="evenodd" class="c" d="m289.9 427.8l1.6-1.4h87.5l-1.6 1.4z"/><path fill-rule="evenodd" class="d" d="m405.3 400.8l-22.3 20.4-5.7 5.2h-85.8l13-11.9 15.1-13.7z"/><path class="e" d="m383 421.2l-5.7 5.2h-85.8l13-11.9c7.2-1.5 14.9-1.5 22.3-1.4 13.5 0.2 27.1 0.6 40.4 3.2 5.3 1 10.9 2.5 15.8 4.9z"/><path fill-rule="evenodd" class="f" d="m286.3 92.2h156.3v300.4h-156.3z"/><path fill-rule="evenodd" class="g" d="m294.9 104h139.1v288.6h-139.1z"/><path fill-rule="evenodd" class="h" d="m294.9 352.8h139.1v39.8h-139.1z"/><path fill-rule="evenodd" class="i" d="m348.5 362.9l85.5 29.7v-288.6l-85.5 9.3z"/><path class="j" d="m353.7 148.7v-23.8l73.4-6.3v26.9h-0.4zm0.8-23.1v22.3l71.9-3.2v-25.2z"/><path class="j" d="m427.1 379.4l-0.5-0.2-72.9-24v-64.5l73.4 15.8zm-72.6-24.8l71.8 23.7v-71.2l-71.8-15.4z"/><path class="j" d="m427.1 280.6l-36.8-6.3v-115.4l36.8-0.9zm-36-7l35.2 6.1v-120.8l-35.2 0.8z"/><path class="j" d="m386 273.5l-32.3-5.5v-108.3l32.3-0.7zm-31.5-6.3l30.7 5.3v-112.8l-30.7 0.7z"/><path class="j" d="m400.9 292.5l-24.9-5v-9.4l24.9 4.6zm-24.1-5.7l23.3 4.7v-8.2l-23.3-4.3z"/><path fill-rule="evenodd" class="k" d="m16.9 400.6h457.1"/><path fill-rule="evenodd" class="l" d="m121.2 399.6l-43 25.6h-65.4l49.1-27.8z"/><path fill-rule="evenodd" class="m" d="m121.2 339.1v4.9h-73.9l12-4 2.7-0.9z"/><path fill-rule="evenodd" class="d" d="m47.3 344h64.2v61.2h-64.2z"/><path fill-rule="evenodd" class="m" d="m50.2 395.5h27v3.8h-27z"/><path fill-rule="evenodd" class="m" d="m50.2 391.2h18.1v2.7h-18.1z"/><path class="m" d="m106.5 352.8c0 2.8-2.2 4.9-4.9 4.9-2.7 0-4.9-2.1-4.9-4.9 0-2.7 2.2-4.9 4.9-4.9 2.7 0 4.9 2.2 4.9 4.9z"/><path fill-rule="evenodd" class="e" d="m50.2 405.2h-2.9v-61.2h2.9z"/><path fill-rule="evenodd" class="n" d="m121.2 339.1v60.5l-9.7 5.6v-61.2l2.6-1.3z"/><path class="o" d="m121.2 388.2v11.4l-9.7 5.6v-61.2l2.6-1.3c-0.3 9.3 0.1 18.6 1.2 27.9 0.5 4.3 1.2 8.7 2.9 12.7 0.8 1.8 1.8 3.4 3 4.9z"/><path class="p" d="m121.2 339.1v0.7c-27.8 3.5-51.2 1.5-61.9 0.2l2.7-0.9c0 0 59.2 0 59.2 0z"/><path fill-rule="evenodd" class="m" d="m111.5 295.4v3.6h-54.5l8.9-3 2-0.6z"/><path fill-rule="evenodd" class="d" d="m57.1 299h47.2v45.1h-47.2z"/><path fill-rule="evenodd" class="m" d="m59.2 337h19.8v2.8h-19.8z"/><path fill-rule="evenodd" class="m" d="m59.2 333.8h13.3v2h-13.3z"/><path class="m" d="m100.7 305.5c0 2-1.6 3.6-3.6 3.6-2 0-3.7-1.6-3.7-3.6 0-2 1.7-3.6 3.7-3.6 2 0 3.6 1.6 3.6 3.6z"/><path fill-rule="evenodd" class="e" d="m59.2 344.1h-2.1v-45.1h2.1z"/><path fill-rule="evenodd" class="n" d="m111.5 295.4v44.5l-7.2 4.2v-45.1l1.9-0.9z"/><path class="o" d="m111.5 331.6v8.3l-7.2 4.2v-45.1l1.9-0.9q-0.2 10.2 0.9 20.5c0.4 3.2 0.9 6.4 2.2 9.4 0.6 1.3 1.3 2.5 2.2 3.6z"/><path class="p" d="m111.5 295.4v0.5c-20.5 2.6-37.8 1.1-45.6 0.1l2-0.6z"/><path class="q" d="m391.8 257.7q5.5 5.7 10.2 12.1 4.6 6.4 8.6 13.3c5.3 9.1 9.6 18.8 13.2 28.7 3.5 10 6.3 20.2 8.6 30.5q1.8 7.7 3.2 15.5 1.3 7.7 2.5 15.6l-1.4 0.2q-1.3-7.8-2.8-15.5-1.4-7.8-3.1-15.5c-2.3-10.2-5-20.4-8.4-30.3-3.4-9.9-7.6-19.6-12.6-28.8q-3.8-6.9-8.3-13.4-4.4-6.5-9.7-12.4z"/><path class="q" d="m421.1 221.2c4.8 11.8 9.7 23.5 13.3 35.7q1.4 4.6 2.5 9.3c0.4 1.5 0.7 3.1 1.1 4.6 0.3 1.6 0.5 3.2 0.8 4.7 1 6.3 1.7 12.7 2.1 19 0.7 12.8 0.5 25.5 0.4 38.2 0 6.4 0 12.7 0.2 19.1 0.3 6.3 0.8 12.6 1.5 18.9l-1.4 0.2c-0.8-6.3-1.2-12.7-1.3-19.1-0.2-6.4-0.2-12.7-0.1-19.1 0.2-12.7 0.6-25.4-0.1-38.1-0.2-6.4-0.9-12.7-1.8-19-0.3-1.5-0.6-3.1-0.8-4.7-0.4-1.5-0.7-3.1-1-4.6q-1.1-4.7-2.4-9.2c-3.5-12.3-8.3-24.1-13-35.9z"/><path class="q" d="m480.8 260c-24.5 30.6-36.8 70.6-33.9 109.5l-1.5 0.1c-2.5-39.3 10.5-79.3 35.4-109.6z"/><path class="r" d="m451.7 403.2h-24.8c-2.4 0-4.4-1.8-4.6-4.1l-2.8-29.5h39.5l-2.8 29.5c-0.2 2.3-2.2 4.1-4.5 4.1z"/><path fill-rule="evenodd" class="s" d="m458.2 378.3l0.8-8.7h-39.5l0.8 8.7z"/><path fill-rule="evenodd" class="r" d="m417.1 363.7h44.4v8.1h-44.4z"/><path class="t" d="m486 266.5c-1.4 2.5-3.6 4.5-5.7 6.5q-1.5 1.6-2.9 3.2c-3.7 4.3-6.7 9.1-9 14.3-1.7 3.7-3 7.7-3.9 11.7q-0.1 0.5-0.2 1c-1 5.5-1.4 11.2-3.1 16.6-0.3 1.1-1 2.9-1.9 4.7-2 4.2-5.4 8.8-9.1 7.9q-0.7-0.2-1.5-0.7c-0.9-0.6-1.7-1.4-2.3-2.4-2.3-3.5-2.7-8.9-2.4-13q0.1-1.2 0.3-2.2c0.7-4.7 2.3-9.1 4.1-13.5 0.7-1.8 1.5-3.7 2.2-5.5 1.4-3.5 2.6-7 3.9-10.5 1.3-3.7 2.8-7.3 4.5-10.8 1.4-2.7 3.1-5.3 4.9-7.7 2.9-3.7 6.3-6.8 10.4-8.8 1.9-1 4-1.7 6.1-1.7 2.2 0.1 4.4 1 5.7 2.7 1.6 2.3 1.3 5.7-0.1 8.2z"/><path class="u" d="m486 266.5c-1.4 2.5-3.6 4.5-5.7 6.5q-1.5 1.6-2.9 3.2-1.2 0.6-2.3 1.2c-3 1.8-5.9 4.3-6.7 7.7-0.4 1.8-0.2 3.6 0 5.4-1.7 3.7-3 7.7-3.9 11.7q-0.1 0.5-0.2 1c-2.2 2.6-4.8 5.2-5.8 8.4-0.8 2.6-0.5 5.4-0.1 8 0.3 1.7 0.7 3.3 0.9 4.9-2.1 4.2-5.4 8.8-9.1 7.9q-0.7-0.2-1.5-0.7c-0.9-0.6-1.7-1.4-2.3-2.4-2.3-3.5-2.7-8.9-2.4-13 1.7-1.7 3.7-3.2 4.8-5.3 1.6-3.2 0.5-6.8-0.4-10.4 0.7-1.8 1.5-3.7 2.2-5.5 1.4-3.5 2.6-7 3.9-10.5 2.7-1.9 5.5-3.7 7.1-6.5 1.8-3.1 1.6-6.9 2.1-10.4q0.1-0.8 0.2-1.6c2.9-3.7 6.3-6.8 10.4-8.8 1.9-1 4-1.7 6.1-1.7 2.2 0.1 4.4 1 5.7 2.7 1.6 2.3 1.3 5.7-0.1 8.2z"/><path class="t" d="m448.4 282.3c-0.3 4.3 0.4 8.6 0.6 12.9q0.1 1.3 0.1 2.5c0 3.5-0.4 7.1-1.9 10.2-1.8 4-7.3 9.5-11.5 5.6-1.6-1.5-2.7-3.4-3.5-5.4-1.3-3.6-1.7-7.7-1.6-11.3 0.2-4.9 1-9.8 1-14.7q0-2.2-0.4-4.4-0.4-2.5-1.2-4.9c-2.9-8.6-9.3-16-12.9-24.5q-1.2-2.8-2-5.7c-1.7-6.1-2-12.6-0.9-18.8q0.2-1.3 0.6-2.6c0.9-3.8 2.9-7.9 6.6-8.8q0.2 0 0.4-0.1c4.1-0.6 7.5 3 9.8 6.4 2.7 4 5 8.2 7.3 12.4q1.5 2.8 2.9 5.6c3.1 5.8 6.1 11.8 7.8 18.1q0 0 0 0c0.8 3.1 1.3 6.3 1.2 9.6v0.2c-0.2 6-2.1 11.8-2.4 17.7z"/><path class="u" d="m448.6 295.8q0.3 0.9 0.5 1.9c0 3.5-0.4 7.1-1.9 10.2-1.8 4-7.3 9.5-11.5 5.6-1.6-1.5-2.7-3.4-3.5-5.4 1.1-0.1 2.1-0.5 3-1.4 1.5-1.3 2.1-3.3 2.3-5.3 0.8-6.7-3.6-12.8-5.9-19.3q0-2.2-0.4-4.4-0.4-2.5-1.2-4.9c0.1-6.3 1.7-12.9-1.5-18.2-3.2-5.1-9.8-7.2-13.4-12-1.7-6.1-2-12.6-0.9-18.8q0.2-0.7 0.5-1.3c1-2.7 2.2-5.4 4-7.7 0.8-0.9 1.7-1.7 2.7-2.4q0.2 0 0.4-0.1c4.1-0.6 7.5 3 9.8 6.4 2.7 4 5 8.2 7.3 12.4q0 1.2 0.1 2.4c0.1 4.9 0.7 10.1 3.6 14.1 1.7 2.3 4.1 4 6 6.1q0.5 0.5 1 1.1 0 0 0 0c0.8 3.1 1.3 6.3 1.2 9.6-0.5 1-1.2 2-1.7 3-2.7 4.6-3.9 10-3.5 15.3 0.3 4.5 1.8 8.8 3 13.1z"/><path class="t" d="m435.2 319.3q-0.1 0.6-0.1 1.2c-0.3 3.4-1 11.2-5.3 12-3.1 0.5-7.5-4.8-10-6.5-1.3-1-2.7-1.9-4.1-2.9-2.1-1.6-4.1-3.4-5.5-5.7-1.3-2.1-2.1-4.4-2.6-6.8-0.8-3.8-0.9-7.8-1.6-11.7q-0.5-2.6-1.3-5c-2-6.1-5.3-11.6-9.2-16.8q0 0 0 0c-1.9-2.6-4-5.1-6-7.5q-1.1-1.2-2.2-2.5c-2.4-3.2-4.5-6.6-4.1-10.4 0.5-5 5.3-8.8 10.3-9 5-0.2 9.7 2.5 13 6.3q1.3 1.6 2.4 3.4c1.9 3 3.2 6.4 4.3 9.8 0.8 2.4 1.5 4.8 2.3 7.3 0.8 2.3 1.6 4.6 2.7 6.8 1 2.2 2.3 4.3 3.7 6.4 2.8 4.3 6 8.3 8.5 12.8 1 1.6 1.9 3.3 2.6 5.1 1.7 4.4 2.4 9.1 2.2 13.7z"/><path class="u" d="m435.2 319.3q-0.1 0.6-0.1 1.2c-0.3 3.4-1 11.2-5.3 12-3.1 0.5-7.5-4.8-10-6.5-1.3-1-2.7-1.9-4.1-2.9 0.6-2.6 1-5.3-0.2-7.5-1.4-2.8-4.8-3.8-7.9-5-0.8-3.8-0.9-7.8-1.6-11.7q-0.5-2.6-1.3-5c0.9-1.7 1.7-3.5 2.2-5.3 1.1-3.7 0.6-8.3-2.5-10.5-2.3-1.6-5.4-1.5-8.1-1.1q-0.4 0-0.8 0.1 0 0 0 0c-1.9-2.6-4-5.1-6-7.5q-1.1-1.2-2.2-2.5c3.8-3 8.1-5.5 12.6-7.2q4.2-1.6 8.7-2.4 0.1 0 0.3-0.1c1.9 3.1 3.2 6.4 4.3 9.8 0.8 2.4 1.5 4.8 2.3 7.3q-0.5 1.2-0.9 2.5c-1 3.1-0.8 7.1 1.9 9.1 1.5 1.2 3.4 1.5 5.4 1.6 2.8 4.3 6 8.3 8.6 12.8-0.9 1.7-1.8 3.5-2.5 5.3-1.1 2.8-1.6 6 0 8.6 1.5 2.4 4.6 3.5 7.2 4.9z"/><path class="v" d="m108.6 194v2.2h-2.1v-2.2c-2-0.1-3.9-0.7-5-1.6l1.1-2.5c1 0.8 2.5 1.3 3.9 1.5v-3.4c-2.2-0.6-4.7-1.3-4.7-4.2 0-2.2 1.5-4 4.7-4.4v-2.2h2.1v2.2c1.5 0.1 3 0.5 4.1 1.2l-1 2.5c-1.1-0.6-2.1-0.9-3.1-1v3.4c2.2 0.5 4.7 1.3 4.7 4.1 0 2.1-1.6 4-4.7 4.4zm-2.1-9v-2.9c-1 0.3-1.5 0.9-1.5 1.5 0 0.7 0.7 1.1 1.5 1.4zm3.5 4.9c0-0.7-0.6-1.1-1.4-1.4v2.8c1-0.2 1.4-0.8 1.4-1.4z"/><path class="v" d="m99.7 180.3v1.1h-1v-1c-1-0.1-1.9-0.4-2.4-0.8l0.5-1.3c0.5 0.4 1.2 0.7 1.9 0.8v-1.7c-1.1-0.3-2.3-0.6-2.3-2.1 0-1 0.8-1.9 2.3-2.1v-1.1h1v1.1c0.8 0 1.5 0.2 2 0.6l-0.5 1.2q-0.7-0.4-1.5-0.5v1.7c1.1 0.2 2.3 0.6 2.3 2 0 1-0.7 1.9-2.3 2.1zm-1-4.4v-1.4c-0.5 0.1-0.7 0.4-0.7 0.8 0 0.3 0.3 0.5 0.7 0.6zm1.7 2.4c0-0.3-0.3-0.5-0.7-0.7v1.4c0.5-0.1 0.7-0.4 0.7-0.7z"/><path class="b" d="m217.6 132.3c0 4.5-6.1 13.8-9.2 18.2-0.8 1.2-2.5 1.2-3.4 0-3-4.4-9.1-13.7-9.1-18.2 0-6 4.8-10.8 10.8-10.8 6 0 10.9 4.8 10.9 10.8z"/><path class="v" d="m211.2 132.3c0 2.5-2 4.6-4.5 4.6-2.5 0-4.5-2.1-4.5-4.6 0-2.4 2-4.5 4.5-4.5 2.5 0 4.5 2.1 4.5 4.5z"/><path fill-rule="evenodd" class="d" d="m296.4 72.2l2.3 4.6 5.2 0.8-3.8 3.6 0.9 5.2-4.6-2.4-4.6 2.4 0.8-5.2-3.7-3.6 5.2-0.8z"/><path fill-rule="evenodd" class="d" d="m314 72.2l2.3 4.6 5.1 0.8-3.7 3.6 0.9 5.2-4.6-2.4-4.7 2.4 0.9-5.2-3.7-3.6 5.1-0.8z"/><path fill-rule="evenodd" class="d" d="m331.5 72.2l2.3 4.6 5.2 0.8-3.7 3.6 0.9 5.2-4.7-2.4-4.6 2.4 0.9-5.2-3.7-3.6 5.1-0.8z"/><path fill-rule="evenodd" class="d" d="m349.1 72.2l2.3 4.6 5.2 0.8-3.7 3.6 0.8 5.2-4.6-2.4-4.6 2.4 0.9-5.2-3.8-3.6 5.2-0.8z"/><path fill-rule="evenodd" class="d" d="m366.7 72.2l2.3 4.6 5.2 0.8-3.8 3.6 0.9 5.2-4.6-2.4-4.6 2.4 0.9-5.2-3.8-3.6 5.2-0.8z"/><path class="d" d="m45.8 124h-30.5c-0.7 0-1.2 0.6-1.2 1.2v19.3c0 0.7 0.5 1.2 1.2 1.2h20.5l9.8 3.9c0.7 0.3 1.4-0.2 1.4-1v-4.1-1.6-17.7c0-0.6-0.5-1.2-1.2-1.2z"/><path class="v" d="m22.9 134.8c0 0.8-0.6 1.4-1.4 1.4-0.8 0-1.4-0.6-1.4-1.4 0-0.8 0.6-1.4 1.4-1.4 0.8 0 1.4 0.6 1.4 1.4z"/><path class="v" d="m32 134.8c0 0.8-0.6 1.4-1.4 1.4-0.8 0-1.5-0.6-1.5-1.4 0-0.8 0.7-1.4 1.5-1.4 0.8 0 1.4 0.6 1.4 1.4z"/><path class="v" d="m41.1 134.8c0 0.8-0.7 1.4-1.5 1.4-0.8 0-1.4-0.6-1.4-1.4 0-0.8 0.6-1.4 1.4-1.4 0.8 0 1.5 0.6 1.5 1.4z"/><path class="r" d="m143.9 101.4h-23.2c-0.6 0-1.2 0.5-1.2 1.2v19.3c0 0.7 0.6 1.2 1.2 1.2h13.2l9.8 3.9c0.7 0.3 1.4-0.2 1.4-1v-4.1-1.6-17.7c0-0.7-0.5-1.2-1.2-1.2z"/><path class="v" d="m127 110c0-1.5 1-2.5 2.3-2.5 1.3 0 2.2 1 2.2 2.5 0 1.5-0.9 2.5-2.2 2.5-1.3 0-2.3-1-2.3-2.5zm3.2 0c0-1-0.4-1.4-0.9-1.4-0.6 0-1 0.5-1 1.4 0 1 0.4 1.4 1 1.4 0.5 0 0.9-0.4 0.9-1.4zm4.4-2.4h1.6l-6.2 9h-1.5zm-1.5 6.6c0-1.5 0.9-2.4 2.2-2.4 1.3 0 2.3 0.9 2.3 2.4 0 1.6-1 2.5-2.3 2.5-1.3 0-2.2-0.9-2.2-2.5zm3.2 0c0-0.9-0.4-1.4-1-1.4-0.5 0-0.9 0.5-0.9 1.4 0 1 0.4 1.5 0.9 1.5 0.6 0 1-0.5 1-1.5z"/><path fill-rule="evenodd" class="w" d="m57 225.9q-0.7 2.2-1.1 4.4"/><path fill-rule="evenodd" class="x" d="m55.2 239.3c0.4 8.7 3.5 17.4 8.7 24.6 7.9 10.8 19.9 18.1 32.7 21.9 12.8 3.8 26.4 4.3 39.7 3.4 18.7-1.3 37.1-5.3 55.7-8 18.6-2.7 37.7-4 56 0.2 15.4 3.5 30.2 11.4 40.2 23.4"/><path fill-rule="evenodd" class="w" d="m290.9 308.4q1.3 1.8 2.5 3.8"/><path fill-rule="evenodd" class="y" d="m84.4 212.9l-28.2 9.4-6.8-6.9z"/><path fill-rule="evenodd" class="z" d="m58.6 225.3l-2.7 3 4.6-1.5z"/><path class="y" d="m58.6 225.3l7.7 10.6c0 0 18.2-23.1 18.1-23 0 0.2-25.8 12.4-25.8 12.4z"/><path fill-rule="evenodd" class="A" d="m55.9 228.3l0.3-6 28.2-9.4-25.8 12.4z"/><path class="b" d="m35.5 199.3c0 2.8-2.2 5-4.9 5-2.8 0-5-2.2-5-5 0-2.7 2.2-4.9 5-4.9 2.7 0 4.9 2.2 4.9 4.9z"/><path fill-rule="evenodd" class="b" d="m24.2 218.4c-1.9 0-3.5-1.5-3.5-3.4 0-2 1.6-3.5 3.5-3.5 1.9 0 3.5 1.5 3.5 3.5 0 1.9-1.6 3.4-3.5 3.4z"/><path class="v" d="m98.3 210.2c0 2.2-1.8 4-4 4-2.2 0-4-1.8-4-4 0-2.3 1.8-4.1 4-4.1 2.2 0 4 1.8 4 4.1z"/><path class="v" d="m107.9 227.6c0 1.7-1.4 3.1-3.1 3.1-1.8 0-3.2-1.4-3.2-3.1 0-1.8 1.4-3.2 3.2-3.2 1.7 0 3.1 1.4 3.1 3.2z"/><path class="v" d="m262.9 238.1c0 0.7-0.6 1.4-1.4 1.4-0.7 0-1.3-0.7-1.3-1.4 0-0.8 0.6-1.4 1.3-1.4 0.8 0 1.4 0.6 1.4 1.4z"/><path class="v" d="m57.7 275.8c0 1.3-1 2.3-2.2 2.3-1.3 0-2.3-1-2.3-2.3 0-1.2 1-2.3 2.3-2.3 1.2 0 2.2 1.1 2.2 2.3z"/><path fill-rule="evenodd" class="v" d="m218.9 328.3c-1.1 0-2-1-2-2.1 0-1.2 0.9-2.1 2-2.1 1.2 0 2.1 0.9 2.1 2.1 0 1.1-0.9 2.1-2.1 2.1z"/><path class="b" d="m454.9 155.8c0 1.1-0.9 2-2 2-1.2 0-2.1-0.9-2.1-2 0-1.2 0.9-2.1 2.1-2.1 1.1 0 2 0.9 2 2.1z"/><path fill-rule="evenodd" class="v" d="m459.2 218.2c-1.2 0-2.3-1-2.3-2.3 0-1.2 1.1-2.3 2.3-2.3 1.2 0 2.3 1.1 2.3 2.3 0 1.3-1.1 2.3-2.3 2.3z"/><path class="b" d="m472.2 180.2c0 1.4-1.1 2.6-2.5 2.6-1.4 0-2.5-1.2-2.5-2.6 0-1.4 1.1-2.5 2.5-2.5 1.4 0 2.5 1.1 2.5 2.5z"/><path fill-rule="evenodd" class="b" d="m271.3 108.4c-1.2 0-2.2-1-2.2-2.2 0-1.2 1-2.2 2.2-2.2 1.2 0 2.2 1 2.2 2.2 0 1.2-1 2.2-2.2 2.2z"/><path class="b" d="m109.7 110c0 0.8-0.7 1.5-1.6 1.5-0.9 0-1.6-0.7-1.6-1.5 0-0.9 0.7-1.6 1.6-1.6 0.9 0 1.6 0.7 1.6 1.6z"/><path fill-rule="evenodd" class="B" d="m311.2 411.6c-28.2 0-51-1.9-51-4.3 0-2.4 22.8-4.3 51-4.3 28.2 0 51 1.9 51 4.3 0 2.4-22.8 4.3-51 4.3z"/><path class="C" d="m301.3 323.9c0.8 10.4 0.8 19.8 0.4 28.2-1.3 28.9-7.8 45.4-7.8 45.4l-9.7-0.2-6.1-87.9-0.7-9.9q3.1-0.3 6-0.5c7.8-0.7 15.6-1.8 23.4-2.9-2.3 15.8-5.5 27.8-5.5 27.8z"/><path class="D" d="m301.3 323.9c0.8 10.4 0.8 19.8 0.4 28.2l-2.1-23.2c-1.1-11-10.4-19.5-21.5-19.5l-0.7-9.9q3.1-0.3 6-0.5c7.8-0.7 15.6-1.8 23.4-2.9-2.3 15.8-5.5 27.8-5.5 27.8z"/><path class="i" d="m295.1 397.1c0 0 1.9 5.7 0.7 8.9h-24.9c0 0-1.7-4.6 5.4-4.1l7.2-4.4-0.9-14.6c0 0 4-2.8 7 1.1l8.7 0.8z"/><path class="E" d="m289.6 384c0 0-1.8 12-2.3 13.5-0.5 1.5-3.2 5.4-6 5.5-2.9 0-5-1.1-5-1.1l7.2-4.4-0.9-14.6c0 0 4-2.8 7 1.1z"/><path class="F" d="m321.8 293.5q-5.9 1.2-11.9 2.1-7.1 1.1-14.1 2c10.4 30.3 24.5 67.1 36.9 92 3.9 1.3 6.2-2.4 9.5-3.1-0.6-23.2-9.7-47.1-18.3-68.2-0.4-7.2-1-15.8-2.1-24.8z"/><path class="i" d="m344 385.8c0 0 4.1 4.3 4.4 7.7l-22.6 10.6c0 0-3.4-3.5 3.2-6l4.6-7-6.9-12.9c0 0 2.4-4.2 6.8-1.9l8.2-3z"/><path class="E" d="m333.5 376.3c0 0 3.5 11.6 3.6 13.2 0.2 1.6-0.5 6.2-3.1 7.5-2.6 1.2-5 1.1-5 1.1l4.6-7-6.9-12.9c0 0 2.4-4.2 6.8-1.9z"/><path class="F" d="m333.3 265.4c-2.6 0.8-4.9 1.9-7.5 2.5-4.7-13.7-9.8-28.5-16-41-1.4-2.8-2.8-5.5-4.2-8.1-1.9-3.6-3.8-7-5.7-10.3 4.1-1.7 8.1-3.5 12-5.4q2-0.9 4-1.8 2.3 5 4.1 10.1 1.5 4.3 2.9 8.5c4.8 15.2 7.8 29.9 10.4 45.5z"/><path class="F" d="m328.8 261.3c0 0 1.8 0.7 3.6 2.6 1.9 1.8 2.2 5.5 3.3 7.2 1.1 1.6 2.1 2.9 1.7 3.4-0.3 0.4-1-0.2-3-2.6 0 0-1.2-0.9-0.6 0.5 0.5 1.3 2.7 4.2 2 4.9-0.5 0.6-3.3-3.9-3.6-3.9-0.3-0.1 2.2 5.8 1.2 6.6-1.1 0.9-2.2-6.3-3-6.3-0.8-0.1 0.6 4.9-0.1 5.2-1.5 0.5-2-7.7-2.7-7.6-0.7 0.2-1.2 3.3-2.2 3.1-0.9-0.2 0.3-3.3 0.3-4-0.1-0.6-1.4-7.9 3.1-9.1z"/><path class="G" d="m320 211.4l-14.4 7.4c-1.9-3.6-3.8-7-5.7-10.3 4.1-1.7 8.1-3.5 12-5.4q2-0.9 4-1.8c1.5 3.3 2.9 6.7 4.1 10.1z"/><path class="H" d="m318.9 205.3c0 0-11.6 8-16.9 8.3l-14.6-26.6c0 0-0.1-1.5 0.1-3.6 0.7-6.9 8.9-10.3 14.3-5.9l0.2 0.1c1.1 1 2.5 2.8 4 5 4.1 6 9 15.1 11.4 19.7 0.9 1.9 1.5 3 1.5 3z"/><path class="I" d="m318.9 205.3c0 0-11.6 8-16.9 8.3l-14.6-26.6c0 0-0.1-1.5 0.1-3.6 0.7-6.9 8.9-10.3 14.3-5.9l0.2 0.1c1.1 1 2.5 2.8 4 5q-0.7 8.5-1.4 17c-0.2 1.3-0.2 2.8 0.4 3.9 0.8 1.6 2.7 2.2 4.4 2.3 3 0.2 6-1.2 8-3.5 0.9 1.9 1.5 3 1.5 3z"/><path class="F" d="m293.4 173.1v-16.7h-11.1v17.5c-2.7 1-5 2.9-6.6 5.3-0.9 1.4-1.8 2.6-2.5 3.6q1.5 0.8 3.2 1.4 0.6-0.1 1.1-0.2c3.2-0.3 6.5-1 9.4-2.4 2.3-1.1 4.5-2.4 6.1-4.4q0.1-0.2 0.1-0.5c0.5-1.2 1-2.4 1.7-3.5q-0.7 0-1.4-0.1z"/><path class="G" d="m293.3 160.5c-1 2.7-2.3 5.1-3.8 6.7-1.6 1.6-3.2 2.5-4.7 3-0.9 0.3-1.7 0.5-2.5 0.5v-2.9c0.9 0.1 2.2 0 3.8-0.5 1.4-0.5 3-1.4 4.6-3 1-1 1.8-2.3 2.6-3.8z"/><path class="d" d="m327.4 297.8c-0.8 0.2-2.1 0.5-3.9 0.9-9.8 2.1-32.3 6.7-44.4 7.3-1.5 0-2.8 0.1-3.9 0l-1.1-81.5c0 0-1.1-6.7-2.3-13.6-1.1-6.7-2.2-13.5-2.5-14.7-0.6-2.6-1.1-4.3 3.4-13.2 4.5-8.9 9.7-9.1 9.7-9.1-3.9 0.8-8.2 7.8-8.2 7.8 0 0 9.1-2.5 12.4-6 3.4-3.5 7.5-2.8 7.5-2.8 3.4 0.7 5.6 2.6 7 4.8 1.9 2.9 2.5 6.5 1.9 9.9-0.8 4-1.2 9.2-1.4 14.2-0.4 8.1-0.3 15.5-0.3 15.5 13.5 13.3 10.9 34.2 10.9 34.2z"/><path class="J" d="m292.6 202.6c-0.6 4.2-1.1 8.4-1.4 12.6q-0.3 3.1-0.3 6.3 0 0.8 0 1.6 0 0.7 0.1 1.5l0.1 0.8q0 0.4 0.1 0.8 0.1 0.7 0.3 1.5c1.6 8.3 3.5 16.5 5.4 24.7l5.7 24.7 2.8 12.3 2.8 12.4c-2.1-8.2-4.1-16.4-6.1-24.6-2-8.2-4-16.4-5.9-24.6l-2.7-12.4c-0.9-4.1-1.9-8.2-2.6-12.4q-0.1-0.8-0.2-1.6-0.1-0.3-0.2-0.7v-0.8q-0.1-0.8-0.1-1.6 0-0.8 0-1.6 0.1-3.2 0.4-6.4 0.6-6.3 1.8-12.5z"/><path class="e" d="m298.2 189.3l-8.7 26.4q0 0 0 0c-8.3 14.4-12.5 30.8-11.9 47.5l1.5 42.8c-1.5 0-2.8 0.1-3.9 0l-1.1-81.5c0 0-1.1-6.7-2.3-13.6l23-25z"/><path class="e" d="m327.4 297.8c-0.8 0.2-2.1 0.5-3.9 0.9l-15.3-47.7c3.3-14.7-10-31.4-10-31.4l3.4-17.8c-0.4 8.1-0.3 15.5-0.3 15.5 13.5 13.3 10.9 34.2 10.9 34.2z"/><path class="K" d="m230.8 199.9c-2.2 0.5-3.2 1-5.2 2.1-3.1-5.5-6.2-11-8.7-16.9 2.6-1.1 5.4-2.2 8-3.4 2.7 6.3 5.5 11.3 5.9 18.2z"/><path class="t" d="m225.5 200c-3.1-4-4.8-9.1-7-13.6q0.6-0.4 0.4-1.1c1.6-0.6 3.2-1.2 4.8-1.9q0.4 0.6 1.1 0.4c2.2 4.6 4.9 9.1 5.1 14.4-0.5 0.1-0.6 0.5-0.6 0.9-1.2 0.1-2 0.5-2.9 1.2-0.2-0.3-0.5-0.5-0.9-0.3z"/><path class="K" d="m227.6 191c0.7 1.5-0.1 3-1.6 3.6-1.4 0.6-3 0.1-3.6-1.3-0.7-1.5-0.1-3.1 1.4-3.8 1.5-0.6 3.2 0 3.8 1.5z"/><path class="t" d="m226.5 191.2q0.3-0.1 0.5-0.2 0.1 0.2 0.2 0.4-0.2 0.1-0.5 0.2c0.2 0.4 0.2 0.8 0.1 1.2q-0.3 0-0.6 0 0.1-0.5-0.1-0.9-0.3 0.1-0.7 0.3c0 0.6 0.1 1.1-0.6 1.4-0.5 0.2-1-0.1-1.3-0.6q-0.3 0.1-0.5 0.2-0.1-0.2-0.2-0.4 0.2-0.1 0.5-0.2-0.2-0.5-0.1-1.1 0.3 0 0.6 0 0 0.4 0.1 0.8 0.4-0.1 0.8-0.3c-0.1-0.6-0.3-1.1 0.4-1.4 0.5-0.3 1.1 0.1 1.4 0.6zm-1.8 1.3q-0.3 0.1-0.6 0.3c0.1 0.1 0.3 0.2 0.5 0.1 0.1-0.1 0.1-0.2 0.1-0.4zm0.8-1.3c-0.2 0.1-0.2 0.3-0.2 0.5q0.3-0.1 0.6-0.3c-0.1-0.1-0.2-0.2-0.4-0.2z"/><path class="K" d="m230.6 200.8c-2.3-0.2-3.4 0-5.6 0.6-1.5-6.2-2.9-12.3-3.8-18.6 2.9-0.4 5.8-0.7 8.7-1.1 0.9 6.7 2.2 12.3 0.7 19.1z"/><path class="t" d="m225.4 199.4c-1.8-4.7-2.1-10-3-15q0.7-0.2 0.7-0.9c1.7-0.2 3.4-0.3 5.1-0.6q0.2 0.7 0.9 0.7c0.9 5.1 2.3 10.1 1.1 15.3-0.5 0-0.7 0.3-0.9 0.7-1.1-0.2-2-0.1-3.1 0.4-0.1-0.4-0.3-0.6-0.8-0.6z"/><path class="K" d="m229.9 191.3c0.3 1.7-0.9 2.9-2.5 3.1-1.5 0.2-2.9-0.7-3.1-2.3-0.2-1.6 0.8-3 2.4-3.2 1.6-0.2 3 0.8 3.2 2.4z"/><path class="t" d="m228.8 191.2q0.3 0 0.6-0.1 0 0.3 0 0.5-0.2 0-0.5 0.1c0 0.4 0 0.8-0.2 1.2q-0.4-0.1-0.7-0.2 0.3-0.4 0.3-0.9-0.4 0-0.8 0.1c-0.2 0.6-0.2 1.1-0.9 1.2-0.6 0.1-1.1-0.4-1.2-0.9q-0.3 0-0.6 0 0-0.2 0-0.5 0.3 0 0.5 0 0-0.5 0.2-1 0.3 0 0.6 0.1-0.1 0.4-0.1 0.8 0.4 0 0.8-0.1c0.1-0.6 0.1-1.1 0.9-1.3 0.5-0.1 1 0.4 1.1 1zm-2 0.8q-0.4 0-0.7 0.1c0 0.1 0.2 0.3 0.4 0.3 0.2-0.1 0.2-0.2 0.3-0.4zm1-1c-0.2 0-0.2 0.2-0.3 0.4q0.3-0.1 0.7-0.1c-0.1-0.2-0.2-0.3-0.4-0.3z"/><path class="K" d="m230.2 201.6c-2.2-0.8-3.3-0.9-5.6-1 0.2-6.3 0.5-12.6 1.3-18.9 2.9 0.4 5.8 0.9 8.7 1.3-1 6.7-1.2 12.4-4.4 18.6z"/><path class="t" d="m225.6 198.9c-0.5-5.1 0.6-10.3 1.1-15.3q0.7 0 0.9-0.7c1.7 0.3 3.4 0.6 5.1 0.8q0 0.7 0.7 0.9c-0.5 5.2-0.6 10.4-3.1 15-0.5-0.1-0.8 0.1-1 0.4-1.1-0.4-2-0.5-3.1-0.4 0-0.4-0.2-0.7-0.6-0.7z"/><path class="K" d="m232.1 192.3c-0.2 1.6-1.7 2.5-3.3 2.2-1.5-0.2-2.6-1.4-2.4-3 0.2-1.6 1.6-2.7 3.2-2.5 1.6 0.2 2.7 1.7 2.5 3.3z"/><path class="t" d="m231 191.8q0.3 0.1 0.6 0.1 0 0.3-0.1 0.5-0.2 0-0.5-0.1c-0.1 0.4-0.3 0.8-0.6 1.1q-0.3-0.2-0.5-0.3 0.3-0.4 0.5-0.9-0.5 0-0.9-0.1c-0.2 0.6-0.4 1-1.2 0.9-0.5 0-0.8-0.6-0.8-1.2q-0.3 0-0.6-0.1 0.1-0.2 0.1-0.4 0.3 0 0.5 0.1 0.2-0.6 0.5-1 0.3 0.2 0.5 0.4-0.2 0.3-0.3 0.7 0.4 0.1 0.8 0.1c0.3-0.5 0.4-1.1 1.2-1 0.5 0 0.9 0.7 0.8 1.2zm-2.2 0.2q-0.3 0-0.7-0.1c0.1 0.2 0.1 0.4 0.3 0.4 0.2 0 0.3-0.1 0.4-0.3zm1.3-0.6c-0.2-0.1-0.3 0.1-0.4 0.3q0.4 0 0.7 0c0-0.1-0.1-0.3-0.3-0.3z"/><path class="F" d="m288.5 208.8q-2.3 3.2-4.7 6.2-0.2 0.2-0.4 0.4c-1.6 2-4.4 5-6.8 7.6-2.8 3.1-7.3 4-11.2 2.3-2.5-1.2-5.2-2.4-7.1-3.3-4.8-2.4-9.5-5.2-14.2-8.1-4.6-2.9-9.3-5.9-14-8.8-1.4-0.8-3.3-2-3.3-2-1.5-0.3-1.5-1.8-1.5-1.8-1.1 0-1.1-1.2-1.1-1.2-1.5-0.6-0.8-1.9-0.8-1.9 0 0 1.9 0.7 1.9 0.5 0.1-0.2-4.8-3.3-3.6-3.7 1.2-0.5 6.4 2.7 8.4 2.8 1.9 0.2 2.3-1.6 2.3-1.6l0.4-1.6c0 0 0.8 0.6 1.1 1.3 0.3 0.7-0.2 3.4-0.2 3.4 10.5 4.1 21.6 8.5 32.3 11.7q2-3 3.9-6c1.7-2.6 3.3-5.2 4.9-7.8q2.1 2 4.4 3.9 4.5 4 9.3 7.7z"/><path class="G" d="m288.5 208.8q-2.3 3.2-4.7 6.2c-6.5-1.5-11.3-6.5-13.9-10 1.7-2.6 3.3-5.2 4.9-7.8q2.1 2 4.4 3.9 4.5 4 9.3 7.7z"/><path class="d" d="m271.7 200l14.6-21.3c0 0 11.5-5.3 14.4 7.8l-13.3 25c0 0-10.4-1.9-15.7-11.5z"/><path class="J" d="m272.4 201q-0.4-0.5-0.7-1h-0.1l0.1-0.1c0.9-1.5 1.9-2.9 2.8-4.4q1.5-2.2 3.1-4.3 1.5-2.2 3.1-4.3 1.6-2.1 3.3-4.1-1.4 2.2-2.9 4.4-1.4 2.2-3 4.4-1.5 2.1-3.1 4.3c-1 1.4-2.1 2.8-3.2 4.1v-0.1q0.3 0.6 0.6 1.1z"/><path class="J" d="m286.5 211.5q0.7 0.3 1.3 0.6h-0.1c0.9-2 1.9-4.1 2.8-6.1q1.5-3.1 3-6.1 1.5-3 3.1-6 1.6-3 3.3-6-1.3 3.2-2.8 6.2-1.4 3.1-2.9 6.1-1.5 3.1-3.1 6.1c-1.1 1.9-2.1 3.9-3.2 5.9l-0.1 0.1v-0.1q-0.7-0.3-1.3-0.7z"/><path class="F" d="m269.1 155c0.3-1 1-1.9 1.6-2.7 0.4-0.5 0.7-1.1 1-1.7 0.4-5 1.6-9.7 2.2-11.1 1.1-2.1 6.9-4 12.6-2.9 5.7 1 10.5 4.9 10.7 7.2 0.1 0.9 0.5 4.5-2.5 13.4-1 2.8-2.3 5.4-4 7.1-1.6 1.6-3.2 2.5-4.6 3-2.7 0.9-4.7 0.4-4.7 0.4l-1.1-0.2c0 0-2.7-0.3-5.1-2.9-0.9-0.9-1.8-2.1-2.5-3.7-0.5-1.1-0.8-2.4-1-3.8-0.8 0-1.5-0.3-2.1-0.8-0.4-0.3-0.6-0.8-0.5-1.3z"/><path class="G" d="m290.6 154.7q0.1-0.6 0.1-1.1c0.1-0.4 0-0.8-0.1-1.1-0.2-0.6-1-0.7-1.5-0.3-0.6 0.4-1.1 0.9-1.4 1.6-0.3 0.6-0.4 1.4-0.5 2.1-0.1-0.7-0.2-1.5 0.1-2.3 0.2-0.8 0.8-1.4 1.5-1.9 0.3-0.2 0.8-0.3 1.3-0.2 0.4 0.1 0.8 0.4 0.9 0.9 0.2 0.4 0.1 0.8 0 1.2-0.1 0.4-0.2 0.8-0.4 1.1z"/><path class="G" d="m288.7 156.2c0.1-0.4 0.2-0.7 0.2-1q0.1-0.5 0.1-0.9 0-0.5-0.3-0.9c-0.1-0.2-0.4-0.4-0.7-0.4 0.3-0.2 0.7-0.1 1 0.1 0.4 0.3 0.5 0.8 0.5 1.1q0.1 0.6-0.1 1.1c-0.2 0.4-0.4 0.7-0.7 0.9z"/><path class="G" d="m276.3 158.9c-0.1 0.3-0.4 0.5-0.7 0.7-0.3 0.1-0.6 0.2-0.9 0.1 0.3-0.2 0.6-0.3 0.8-0.4 0.3-0.1 0.5-0.3 0.8-0.4z"/><path class="G" d="m277.1 156.6c-0.3 0.9-1 1.6-1.9 2.1q-0.6 0.4-1.3 0.5c-0.5 0-1 0-1.5-0.1 1-0.2 1.8-0.4 2.6-0.9 0.7-0.4 1.4-1 2.1-1.6z"/><path class="G" d="m274.1 156.4c-0.1 0.3-0.2 0.4-0.3 0.5-0.1 0-0.2 0.1-0.5 0 0-0.2 0.1-0.4 0.2-0.5 0.2-0.1 0.3-0.1 0.6 0z"/><path class="L" d="m274.8 152.3c0 0.8 0.5 1.4 1.1 1.4 0.6 0 1.1-0.6 1.1-1.4 0-0.8-0.5-1.4-1.1-1.4-0.6 0-1.1 0.6-1.1 1.4z"/><path class="L" d="m274.4 150.7c0 0 0.1 0.1 0.3 0.1q0.1 0.1 0.3 0.1 0.4 0 0.9 0c0.2-0.1 0.4 0.1 0.5 0.3 0 0.3-0.2 0.5-0.4 0.5q-0.1 0-0.1 0-0.5 0-1-0.2-0.2-0.1-0.5-0.3c-0.1-0.1-0.2-0.2-0.3-0.5 0 0 0-0.1 0.1-0.1q0.1 0 0.1 0z"/><path class="L" d="m274.4 148.1c0.3 0 0.8-0.1 1.2 0q0.6 0 1.2 0.1 0.6 0.1 1.2 0.3c0.5 0.1 0.8 0.3 1.2 0.4h0.1c0.1 0.1 0.3 0 0.3-0.1 0.1-0.1 0-0.2 0-0.3q-0.6-0.5-1.2-0.9c-0.4-0.2-0.9-0.4-1.3-0.5q-0.7-0.2-1.5-0.2c-0.5 0-0.9 0-1.5 0.2-0.3 0-0.4 0.3-0.3 0.6 0 0.3 0.3 0.4 0.5 0.4z"/><path class="L" d="m273.4 147.2c0 0.2 0 0.4 0.2 0.6 0.2 0.1 0.4 0.2 0.6 0.3 0.1 0 0.3 0 0.3-0.2 0.1-0.1 0-0.3-0.2-0.4q0 0-0.1 0-0.2 0.1-0.4 0-0.1-0.1-0.1-0.1-0.1-0.1-0.1-0.2 0-0.1-0.1-0.1-0.1 0-0.1 0.1z"/><path fill-rule="evenodd" class="M" d="m282.4 165.7c-2.7 0-4.9-2.2-4.9-5 0-2.7 2.2-4.9 4.9-4.9 2.7 0 5 2.2 5 4.9 0 2.8-2.3 5-5 5z"/><path class="N" d="m280.3 167.4c0 0-2.7-0.2-5.1-2.8q-1-1-1.9-2.6c1.2 4.7 3.1 9.2 5.5 13.4 1.9-1.3 3.2-1.5 3.5-1.5v-6.1c-0.6 0-0.9-0.2-0.9-0.2z"/><path class="N" d="m309 174.2c-2.8-3.2-6.3-6.2-7.8-10.2-2.4-6-0.2-12.9-2-19.1-1.4-4.5-5.1-8.2-9.5-9.7-2.9-1-6-1.1-9-0.4-2.8 0.5-5.6 1.8-7.4 4.1-1.8 2.5-2.1 5.8-2 8.9q0 1.6 0.1 3.3 0.2-0.2 0.3-0.5c0.1-2 0.4-4 0.8-5.7 3.3 1 7.2 0.4 10.2-1.3-0.7 1.7-0.9 3.6-0.4 5.4 0.6 1.7 1.7 3.3 3.2 4.3 0.9-0.8 1.6-1.9 2.7-2.4 1.1-0.4 2.5-0.3 3.3 0.5 0.8 0.9 0.8 2.2 0.3 3.3-0.5 1-1.4 1.8-2.3 2.5 0.1 1.6 0.8 3.1 1.8 4.3 0.6 0.7 1.3 1.3 2.1 1.8v9.6c0.4 0 0.7 0 0.7 0 2.7 0.5 4.7 1.9 6.1 3.5q0.8 0.5 1.6 1.1l0.2 0.1c2.2 1.9 5.7 7.4 8.9 12.9 1.3-1.3 2.2-2.8 2.6-4.6 0.9-4.2-1.6-8.4-4.5-11.7z"/><path class="O" d="m220.7 406.2c0 2.4-22.9 4.3-51.1 4.3-28.1 0-51-1.9-51-4.3 0-2.4 22.9-4.3 51-4.3 28.2 0 51.1 1.9 51.1 4.3z"/><path fill-rule="evenodd" class="q" d="m202.8 396h-17.1l-32.5-95.3 1.5-60.1 20.6-6.5 6.8 40.5z"/><path class="P" d="m190.1 396h-4.4l-32.5-95.3 1.5-60.1 20.6-6.5 6.8 40.5c-10.5 26.2-11.9 55.2-3.7 82.3z"/><path class="i" d="m186.9 397.3c0 0-2.2 3.5 0 8.3h27.4c0 0 0.9-1.5 0-2.3-0.9-0.8-9.9-1.1-14-7.3h-13.6z"/><path fill-rule="evenodd" class="E" d="m186.5 405.1h28.2v1.1h-28.2z"/><path class="Q" d="m138 235.8c0 0-2.9 11.4-0.8 20.1l0.7 68.3-5.2 71.8h16.1l21.7-139 4.8-22.9z"/><path class="i" d="m134.2 397.3c0 0-2.3 3.5 0 8.3h27.4c0 0 0.9-1.5 0-2.3-0.9-0.8-10-1.1-14-7.3h-13.6z"/><path fill-rule="evenodd" class="E" d="m133.8 405.1h28.2v1.1h-28.3z"/><path class="R" d="m156.8 179.6c2.9 2.4 6.8 5.8 10.6 6.4 2 0.3 3.5-0.3 4.7-1.5q0.1-0.3 0.3-0.7-0.8-1.2-1.7-2.7c-1.6-2.5-2.9-4.5-5-5.7v-17.9h-10.6v16.7q-1.5 0-3.2 0.2c1.4 1.9 3 3.6 4.9 5.2z"/><path class="S" d="m165.7 168.9v3q-0.6-0.1-1.2-0.3c-1.4-0.5-3-1.4-4.7-3q-1-1.1-1.9-2.6c1.4 1.2 2.8 2 4 2.4 1.6 0.5 2.9 0.6 3.8 0.5z"/><path class="r" d="m176.7 224.4c-0.5 6.8-0.9 12-0.9 12 0 0-3.8 0.7-9.5 1.3q-0.4 0-0.8 0.1c-7.7 0.7-18.5 1-28.3-1.4l5.1-21.3 1.6-15.2 2.7-24.7c0 0 4.4-1.6 8.5-1.1 0 0 8.2 6.7 10.5 6.1q0 0 0.1 0 0.4-0.1 0.6-0.4c0.8-0.8 0.2-2.4-0.2-3.5-0.2-0.5-0.4-0.9-0.4-0.9 0 0 0.1 0.1 0.3 0.1 0.6 0.2 1.6 0.5 2.1 1.1 0.8 0.7 8.4 11.5 9.7 14.2 0.9 1.7-0.2 20.6-1.1 33.6z"/><path class="T" d="m154.7 174.4c0 0-0.5-5.1 0.1-5.1 0.6-0.1 9 3.4 9.6 4.7 0.6 1.3 1.5 6.1 1.5 6.1 0 0-2.5 1.9-11.2-5.7z"/><path class="T" d="m165.9 180.1l-0.3-6.3 0.1-1.9c0 0 2.4 0.8 3 1.6 0.6 0.8 0.4 4.4 0.4 4.4 0 0-0.3 2-3.2 2.2z"/><path class="T" d="m166.3 237.7q-0.4 0-0.8 0.1c2.6-14.2 0.9-45.6 0.1-57.6q0 0 0.1 0 0.4-0.1 0.6-0.4c0.8 11.6 2.6 43.4 0 57.9z"/><path class="s" d="m176.7 224.4c-0.5 6.8-0.9 12-0.9 12 0 0-3.8 0.7-9.5 1.3q-0.4 0-0.8 0.1c-7.7 0.7-18.5 1-28.3-1.4l5.1-21.3 1.6-15.2c2.1-0.7 4.3-1.2 6.5-1.4 0.4 7.9 4.4 15.6 10.7 20.4 4.5 3.4 10 5.3 15.6 5.5z"/><path fill-rule="evenodd" class="m" d="m219.2 213.2v3.7h-54.5l8.8-3 2-0.7z"/><path fill-rule="evenodd" class="d" d="m164.7 216.9h47.3v45h-47.3z"/><path fill-rule="evenodd" class="m" d="m166.9 254.8h19.8v2.8h-19.8z"/><path fill-rule="evenodd" class="m" d="m166.9 251.6h13.3v2h-13.3z"/><path class="m" d="m208.3 223.4c0 2-1.6 3.6-3.6 3.6-2 0-3.6-1.6-3.6-3.6 0-2 1.6-3.6 3.6-3.6 2 0 3.6 1.6 3.6 3.6z"/><path fill-rule="evenodd" class="e" d="m166.9 261.9h-2.2v-45h2.2z"/><path fill-rule="evenodd" class="n" d="m219.2 213.2v44.6l-7.2 4.1v-45l1.9-1z"/><path class="o" d="m219.2 249.4v8.4l-7.2 4.1v-45l1.9-1q-0.3 10.3 0.9 20.5c0.4 3.2 0.9 6.5 2.2 9.4 0.5 1.3 1.3 2.5 2.2 3.6z"/><path class="p" d="m219.2 213.2v0.5c-20.5 2.7-37.8 1.2-45.7 0.2l2-0.7z"/><path class="R" d="m172.5 257.7c0 0 3.7 0.2 3.9-0.3 0.3-0.5-3.4-1.7-3.4-1.7l-3.2-2.1q-3.3-3.8-6.5-7.8-0.2 0.2-0.5 0.3c-1.6 1.4-3.4 2.6-5.2 3.8q-1 0.9-2.1 1.8 4.1 3.7 8.4 7.3c1 1.4 3.4 4.2 3.4 4.2 1.1 0.3 2.5 0.1 2.5 0.1 1.1 0.1 2.5-0.2 2.5-0.2 1.2 0.1 2-0.7 2-0.7 2.9 0.7 4.5-0.5 4.5-0.5h-2.1z"/><path class="r" d="m169.6 251l-1.6 1.3-5.6 4.6-1.3 1.2c0 0-30.8-27.5-32.2-32.2-0.5-2-0.2-5.8 0.4-9.6 0.9-5.7 2.4-11.3 4.2-16.8 2.4-7.1 6.5-18.3 9.3-21.8q0.1-0.2 0.3-0.4 0.3-0.3 0.5-0.5c5.8-5.2 15-0.2 14.3 7.6-0.2 1.6-0.6 2.7-0.6 2.7l-0.7 2.2v0.1l-1.7 5.2-8 27.5z"/><path fill-rule="evenodd" class="s" d="m169.6 251l-1.6 1.3-26-31.1 2-1.4-3-4.8 5 1.9 10.6-27.5-1.7 5.2-8 27.5z"/><path class="U" d="m162.4 256.9l-1.3 1.2c0 0-30.8-27.5-32.2-32.2-0.5-2-0.2-5.8 0.4-9.6 0.9-5.7 2.4-11.3 4.2-16.8 2.4-7.1 6.5-18.3 9.3-21.8-2.7 8.2-13.9 43.4-12.7 47.3 1.2 4.1 27.5 27.7 32.3 31.9z"/><path class="V" d="m159.6 238.3c-1.3-1.5-2.6-3-3.8-4.5q-1.9-2.2-3.8-4.5-1.8-2.3-3.6-4.7l-1.7-2.4c-0.6-0.8-1.1-1.6-1.7-2.4 0.7 0.7 1.3 1.5 2 2.2l1.9 2.3q1.9 2.2 3.7 4.5 1.8 2.3 3.6 4.7c1.2 1.6 2.3 3.1 3.4 4.8z"/><path class="V" d="m156.6 189.3c-0.6 2.8-1.4 5.6-2.1 8.3-0.7 2.7-1.5 5.5-2.3 8.2-0.8 2.7-1.6 5.5-2.5 8.2l-1.3 4c-0.4 1.4-0.8 2.7-1.3 4.1 0.3-1.4 0.7-2.8 1-4.2l1.1-4.1c0.7-2.7 1.5-5.5 2.3-8.2 0.8-2.7 1.6-5.4 2.5-8.2 0.8-2.7 1.7-5.4 2.6-8.1z"/><path class="R" d="m178.9 156.1c-0.3-1-1-1.9-1.6-2.7-0.4-0.5-0.7-1.1-1-1.7-0.4-4.9-1.6-9.7-2.2-11-1.1-2.1-6.9-4.1-12.6-3-5.7 1-10.5 4.9-10.7 7.3-0.1 0.9-0.5 4.5 2.5 13.3 1 2.8 2.3 5.5 4 7.1 1.6 1.6 3.2 2.5 4.6 3 2.7 0.9 4.7 0.4 4.7 0.4l1.1-0.2c0 0 2.7-0.3 5.1-2.8 0.9-0.9 1.8-2.1 2.5-3.7 0.5-1.1 0.8-2.4 1-3.9 0.8 0 1.6-0.3 2.2-0.8 0.3-0.3 0.5-0.8 0.4-1.3z"/><path class="S" d="m157.4 155.8c-0.2-0.3-0.3-0.7-0.4-1.1-0.1-0.4-0.1-0.8 0-1.2 0.1-0.4 0.5-0.8 0.9-0.9 0.5-0.1 1 0 1.3 0.3 0.7 0.4 1.3 1.1 1.5 1.8 0.3 0.8 0.2 1.6 0.1 2.4-0.1-0.8-0.2-1.6-0.5-2.2-0.3-0.6-0.8-1.2-1.4-1.6-0.5-0.3-1.3-0.3-1.5 0.3-0.2 0.3-0.2 0.7-0.1 1.1q0 0.6 0.1 1.1z"/><path class="S" d="m159.3 157.3c-0.3-0.2-0.5-0.5-0.7-0.8q-0.2-0.6-0.1-1.1c0-0.4 0.1-0.8 0.5-1.1 0.3-0.3 0.7-0.4 1.1-0.2-0.4 0-0.7 0.2-0.8 0.5q-0.2 0.3-0.3 0.8c0 0.6 0 1.3 0.3 1.9z"/><path class="S" d="m171.7 160.1c0.3 0.1 0.5 0.2 0.8 0.3 0.2 0.2 0.5 0.3 0.8 0.4-0.3 0.1-0.6 0-0.9-0.1-0.3-0.2-0.6-0.3-0.7-0.6z"/><path class="S" d="m170.9 157.7c0.7 0.7 1.4 1.2 2.1 1.6q0.6 0.4 1.2 0.6c0.5 0.1 0.9 0.2 1.4 0.3q-0.7 0.2-1.4 0.1c-0.5-0.1-1-0.2-1.4-0.5q-0.7-0.3-1.2-0.9c-0.3-0.4-0.5-0.8-0.7-1.2z"/><path class="S" d="m173.9 157.6q0.2-0.1 0.3-0.1 0.2 0 0.3 0 0.1 0.1 0.1 0.2 0.1 0.1 0.1 0.3-0.2 0.1-0.3 0.1-0.1 0-0.2-0.1-0.1 0-0.2-0.2 0-0.1-0.1-0.2z"/><path class="L" d="m173.2 153.4c0 0.8-0.5 1.5-1.1 1.5-0.6 0-1.1-0.7-1.1-1.5 0-0.8 0.5-1.4 1.1-1.4 0.6 0 1.1 0.6 1.1 1.4z"/><path class="L" d="m173.6 149.2c-0.3 0-0.8 0-1.2 0q-0.6 0-1.2 0.1-0.6 0.1-1.2 0.3c-0.4 0.1-0.8 0.3-1.2 0.5h-0.1c-0.1 0-0.3 0-0.3-0.2-0.1-0.1 0-0.2 0-0.3q0.6-0.5 1.2-0.8c0.4-0.3 0.9-0.4 1.3-0.6q0.8-0.2 1.5-0.2c0.5 0 0.9 0 1.5 0.2 0.3 0.1 0.4 0.4 0.3 0.6 0 0.3-0.3 0.4-0.5 0.4z"/><path class="L" d="m174.6 148.3c0 0.2 0 0.4-0.2 0.6-0.2 0.2-0.4 0.3-0.6 0.3-0.1 0.1-0.3 0-0.3-0.2-0.1-0.1 0-0.3 0.2-0.3q0 0 0.1 0 0.2 0 0.4-0.1 0.1 0 0.1-0.1 0.1-0.1 0.1-0.2 0-0.1 0.1-0.1 0.1 0 0.1 0.1z"/><path class="W" d="m170.6 161.9c0 2.7-2.3 4.9-5 4.9-2.7 0-4.9-2.2-4.9-4.9 0-2.8 2.2-5 4.9-5 2.7 0 5 2.2 5 5z"/><path class="L" d="m164.7 146c0.3 3.4-0.7 6.9-2.8 9.5-0.2-1.6-1.4-3-2.9-3.5-0.8-0.2-1.6-0.2-2.2 0.3-0.8 0.5-0.9 1.6-0.8 2.5 0.4 1.6 1.5 3.1 2.9 3.7-0.2 1.1-0.8 2.1-1.2 3.1-0.5 0.9-1.2 1.7-2.1 2.2-2.8-3.3-4.3-7.4-4.2-11.7 0.1-2.3-0.5-4.7 0.4-6.8 0.9-2 2.5-3.8 4.4-5 1.8-1.2 4-2 6.2-2.5 0.7-0.2 1.4-0.3 2.1-0.3 0.7 0 1.4 0.3 1.9 0.8 0.6 0.6 0.8 1.5 0.8 2.4 0.1 2.2-0.8 4-2.5 5.3z"/><path class="T" d="m157.7 136.8c0 0-0.9-0.6-0.1-1.2 0.8-0.6 2.2-0.5 2 0.5z"/><path class="r" d="m151.4 154.1c0 0-4.5-9.3 2.9-15.3 7.4-6.1 19.2-4.1 21.3 4l-8.3 4.6z"/><path class="X" d="m158.9 136.2c0 0 8.9 4.6 8.1 11.2l10.3-4.2c0 0-4.5-11.9-18.4-7z"/><path class="L" d="m150.2 149.6c0 0 0.6-0.6 1.5-0.2 0.5 0.3 0.8 0.8 0.9 1.3l0.3 1-2.1 0.9c0 0-0.7-1.7-0.6-3z"/><path class="T" d="m161.5 149.8c0 0 15-6.1 15-8.3 0 0 7.1-2.8 9.5 0.3 2.5 3.1-26.6 8.9-26.6 8.9z"/></svg>